<?xml version="1.0" encoding="utf-8"?>
<!-- Generator: Adobe Illustrator 23.1.1, SVG Export Plug-In . SVG Version: 6.00 Build 0)  -->
<svg version="1.1" id="Layer_1" xmlns="http://www.w3.org/2000/svg" xmlns:xlink="http://www.w3.org/1999/xlink" x="0px" y="0px"
	 viewBox="0 0 496 216" style="enable-background:new 0 0 496 216;" xml:space="preserve">
<style type="text/css">
	.st0{fill-rule:evenodd;clip-rule:evenodd;}
</style>
<g>
	<path style="fill:#fff;"  class="st0" d="M96.7,102.9c-0.2,0-0.5,0-0.7,0C96.1,103.2,96.7,103.2,96.7,102.9c11.4-1.2,24.9-2.3,37.4-3.1
		c0.4,0,0.8,0,1.2,0c0.8,0.2-0.4,0.3-0.7,0.2c-0.9,0.4-2.6,0-2.4,1.4c2.4-0.1,7.4-0.9,10.3-0.5c-0.6,2.4-2.6,1.2-3.8,1.2
		c-4.1,0.1-8.6,1.4-13.4,1.9c-8.2,1-17.9,0.9-25,2.4c-6.1,1.3-12.9,0.6-17.8,2.2c-4.3,1.4-5.9,6.5-11,5.8
		c-2.2,10.8-8.7,17.4-13,26.2c-0.4,0-0.7,0.1-1,0.2c-1.7,6.6-3.4,13-2.9,20.6c-0.2,0.1-0.4-0.6-0.5-0.5c-1.3,1.8-0.2,6.4-0.2,9.4
		c0,2.1-0.1,4.4-0.2,5.5c-0.1,0.6-0.5,0.5-0.7,1c-0.3,0.7,0.3,1.7-0.5,2.2c-0.1,1.5,1.4,1.4,1.7,2.6c-0.5-0.4-1.2-0.5-1.7-1
		c-0.3,0.8-1,2,0.2,2.4c1.2-0.1-0.4-0.7,0-1.4c0.8,0.3,1.2,0.8,1.4,1.7c-1.2-0.2-0.6,0.7-0.5,1.2c-2.9,1.3-4.4,4.1-7.2,5.5
		c-2.1-1.1-1.8-6-1.4-8.9c-0.8-1.4-3.4-0.9-4.1-2.4c-1.4,0.5-2.6,1.2-4.1,1c1-1.2,1-2.1,1.7-3.4c-1.2-2.3-1.8,0.9-2.6,1.7
		c-1.3,0.1-1.1-1.4-2.2-1.7c-2.4,0.8-3-1.1-5-0.5c-1.5-0.6-2-2.3-4.3-2.2c0.3-0.9,0.5-0.9,0.2-1.9c-2.8-3-6-5.7-7.9-9.6
		c-0.1-1,0.6,0.2,0.7-0.7c-0.2-0.7-0.6,0.3-1.2,0c-2-4.2-0.9-11.6-4.1-14.6c-2.4,0-2.6-2.2-4.8-2.4c0.2-0.7,1,0.1,1.4,0
		c0.7-0.2-0.3-0.6,0-1.2c2.8,2.7,6-1.1,5.3-3.8c-0.2-0.7-0.8-1.7-1.7-0.7c-0.6-1.6,1.6-1.5,1-2.9c3.4,0,3.1-4.6,3.6-6.7
		c0.7,0,0.7,0.7,0.7,1.4c2.8-1.8,3.4-5.8,5-8.9c0.4-0.7,1.2-1.1,1.4-1.9c2-5.4,0.8-11.8,3.8-16.1c-0.9,3-1.1,6.8-1.7,10.1
		c1.5-2.6,2-7.4,2.2-10.6c0.6-0.1,0.5-0.7,1-1c0.2-3.2,1.6-6.1,2.4-9.1c1.2-4.6,3.9-11.4,3.6-16.3c0-0.6-0.5-0.2-0.7-0.7
		c0,0.1,0.6-0.6,0.5-1c-0.3-0.7-1-0.3,0-1.2c-0.7,0-0.9-0.7-1.2-1.7c0.8-1.1,1.8-2,2.4-3.4c-0.2-0.9-0.3-1.9-0.7-2.6
		c0.7-0.3,1.6-0.3,1.7-1.2c-0.7-0.9-2-0.3-3.4-0.5c-0.7,0.3-0.4,1.5-0.5,2.4c-0.9,0-0.7-0.3-1.4,0c-0.5-1.1-0.3-1.8-0.2-3.1
		c-1-0.3-0.5,0.9-1.4,0.7c-0.2-1.1-0.2-2.3-1.2-2.6c-0.5,0.5,0.1,2.2-1,2.2c-1.1,0-0.6-1.4-1-2.2c-0.4-1.1-2.2-1.6-1.7-2.9
		c-1,0.1-1.8-0.9-1.7-2.6c1.3,0.3,2.5,0.1,4.3,1c-0.1,0.8-0.7,1-1,1.7c1.3,1.9,4.3,2.1,5.8,3.8c1.1-0.2,1.6-1,2.6-1.2
		c0.4,1,1,1.7,1.7,2.4c1.2-1.8,1-5,1.7-7.4c0.3,0.1,0.5,0.3,1,0.2c-0.8-0.9-1.1-1.5-0.7-3.1c-0.1-0.6-1.5,0-1.7-0.5
		c0.7-2.3,1.5-4.6,3.8-5.3c0.3-0.5-0.6-0.9,0-1c0.5-0.1,0.5,0.3,0.7,0.5c2.1-0.6,2.9-2.6,4.3-4.3c5.9-7.3,15.1-13,22.6-19
		c2.3-1.8,4.7-3.2,7-4.8c2.2-1.5,3.6-4,6.2-4.8c0.6,1.6,0.9,3.2,0,4.6c0.4,0.7,2.9-0.4,1.9,1c1.7-1.2,2.8-0.1,3.6-2.2
		c0.7,0.6-0.8,1-0.5,1.9c1,0.6,2.2,0.7,3.4,0.7c5.7,0.1,12.7,0.4,19.9,0.2c10.6-0.2,23.9-2.4,30,3.6c6.7-0.6,16.8-2.2,22.3-0.2
		c5.1,1.8,11.6,2.3,13.4,6.2c-1.9,4.1-3.2,8.8-5.5,12.5c0,0.8,0.6,0.8,0.5,1.7c-3,1.4-7.5,1.5-11.5,1.9c-0.5,0.5-0.8,1.3-0.7,2.4
		c-3.9,1-7.2,0.4-10.1,1.7c-2.3,1-2.9,4.4-5,6c-2,1.6-3.6,1.6-5.5,3.1c-0.1,0.6-0.3,1.1-0.2,1.9c-1.1,0-1.2-0.9-2.2-1
		c-2.5,0.5-4.3-0.8-6.7-1.2c-3.3-0.6-6.7-1.3-9.8-1.9c-4.6-0.9-8.9-2.5-13-1.7c3.9,7.4,10.7,11.9,17.5,16.3c0.3,0.4,0.5,0.9,0.7,1.4
		c3.9,2.3,9,1.1,13.4,1.2c2.9,0.1,6.4,1.3,8.2,1.4c1.3,0.1,2.5-0.4,3.6-0.2c1.6,0.2,2.6,1.4,4.1,1.7c0.3,0.1,0.9-0.4,1.2-0.2
		c1.3,0.6,2.1,2,3.6,2.2c-0.4,1.2-0.6,2.6-2.4,2.4c-0.5-0.5-0.1-0.6,0.2-1c-0.3-0.6-1.8-0.9-2.4-0.5c-0.2,0.9,1.3,0.2,1,1.2
		c0.2,1-1.5,0.1-1.7,0.7c1.2,0.5,0.1,1.6,0.2,2.4c-0.6,0-1.3,0-1.9,0c-0.1,0.3,0.3,1.2-0.2,1.2c0.5,0.8,2,0.6,1.7,2.2
		c-1.1,0-2.5-0.2-2.6,0.7c0.7,0.4,1.7,0.5,2.6,0.7c0.7,1.1,1.4,2.2,1.9,3.6c-2.1,0.7-4.2,1.4-7,1.4c0.7,1.2,2.1,0.2,3.1,1
		c-0.6,0.7-2.7-0.2-3.4,0.5c-0.2,0.9,1.3,0.2,1.4,0.7c-2.5-0.5-4.9,0.4-8.9,0.2c-1.1,0.9-1.3,2.7-3.4,2.6c0.3-1,1.9-0.6,1.9-1.9
		c-18.9,2.4-41.8,3.5-61.2,5c-1.1,0.1-3-0.5-3.6,0.7c7,0.7,15.2-1.1,23-1.2c0,0.1,0,0.3-0.2,0.2C97,102.7,96.7,102.6,96.7,102.9z
		 M154.3,43.1c-0.5,0.6,0.2,0.9-0.2,1.7c2.5-0.9,4.9,0.5,6.7-0.5C159.1,43.3,156.8,42.8,154.3,43.1z M153.4,43.4
		c-0.2,0.1-0.5,0-0.5,0.2C153.1,43.5,153.4,43.6,153.4,43.4z M163,45.3C163.1,45.4,162.9,45.2,163,45.3L163,45.3z M137,46.7
		c1.6,0,5.5,0.4,6.5-1C141.1,45.8,138.5,45.7,137,46.7z M150.7,46.5c-0.2,0.1-0.5,0-0.5,0.2C150.4,46.7,150.7,46.7,150.7,46.5z
		 M50.2,52.5c0.9-0.8,1.8-3.8,1-4.8C51.2,49.2,49.7,49.9,50.2,52.5z M136.1,48.2c2.4-0.3-0.7-0.6-1.7,0.2
		C135.5,48.5,135.5,48.2,136.1,48.2z M132.5,48.4c-0.3,0-0.7,0-0.7,0.2C132,48.6,132.4,48.7,132.5,48.4z M149.5,48.9
		C146.9,48.8,148.2,50.1,149.5,48.9L149.5,48.9z M142.1,49.8c0.7-0.2,2.4,0.5,2.4-0.5C144,49.7,141.7,49.4,142.1,49.8z M135.1,50.3
		c-0.2,0.1-0.5,0-0.5,0.2C134.8,50.5,135.1,50.6,135.1,50.3z M136.8,50.3C135.3,50,136.3,51.1,136.8,50.3L136.8,50.3z M46.6,53.9
		c-0.4,0.1-1.2,0.9-0.5,1.2C46.2,54.7,46.6,54.5,46.6,53.9c1.3,0.8,1.9-2,1.4-2.9c-1.1-0.2-1.1,0.8-1.9,1
		C46.1,52.8,46.8,52.9,46.6,53.9z M130.8,54.6c0.5-0.1,1-0.1,1-0.7c-0.3,0-0.6,0-1,0C130.8,54.2,130.8,54.4,130.8,54.6z M93.8,68.3
		c-1.4,3-3.9,4.9-5,8.2c2.9,0.3,5-0.3,6.7-1.2c-0.1,0.5,0,0.8,0.5,0.7c4.8,0.2,7.4,0,11.5-0.2c1.6,2,5.9,1.1,7.9,0.5
		c3.2-0.9,7,1.1,7.4-2.4c-5.1-2.6-8.3-7.4-12.7-10.8c-0.7-0.5-1.7-0.6-2.4-1.2c-2.2-1.8-3.2-5-5.5-6.7c-2.8-0.1-6.6-0.6-9.4,0
		c0.5,1.1,0.1,1.6,0.7,2.6c-0.2,0.6-1.2,0.4-1.2,1.2c0.3,0.9,1,1.4,1.2,2.4c-0.7,1-0.6,0.2-1.7,0.5c-0.1,0.8,0.1,1.3,0.2,1.9
		c-0.4,0.8-0.8,0.6-1,1.2c-1.2,4.8-3.1,7.8-3.6,11.5C89.9,74,91.4,70.6,93.8,68.3z M91.7,56.3c0.2,0,0.3,0,0.5,0
		c0-0.3,0.3-0.3,0.2-0.7c-0.2,0-0.3,0-0.5,0C91.9,55.9,91.6,55.9,91.7,56.3z M89.3,58C89.6,58.8,89.9,57.1,89.3,58L89.3,58z M47,75
		c3.6-1.6,4.1-8.8,3.4-13.2C49.4,66.4,48.1,70.6,47,75z M46.3,64c-0.2,0-0.2,0.1-0.2,0.2c-0.1,0-0.2,0-0.2,0c-0.2,0.2-0.4,0.7,0,0.7
		c0.1-0.2,0.3-0.4,0.2-0.7C46.3,64.3,46.3,64.1,46.3,64c0.7-0.4,0.9-1.2,1.2-1.9C46.7,62.3,46.6,63.3,46.3,64z M91.4,63.8
		C91.6,63.9,91.3,63.7,91.4,63.8L91.4,63.8z M44.2,66.2C44.5,67,44.8,65.2,44.2,66.2L44.2,66.2z M84.5,72.4
		C84.5,73.3,85.5,72.4,84.5,72.4c-0.1-0.2-0.3-0.4-0.2-0.7c0.1-0.9,0.8-1.2,1.7-1.2c-0.1-1.1,0.6-1.7,0.7-3.1
		c-1.9,0.9-1.5,3.9-3.8,4.3c0.4,1.5-1.2,1.2-0.5,2.4c-1.2,0.2-1.5,1.4-1.9,2.4C82.8,77.8,83.4,73.3,84.5,72.4z M86.4,74.3
		c-0.5,0.8-2,1.4-1.2,2.2c1.5-0.9,3.2-5,3.6-7C87.8,70.9,87.3,72.9,86.4,74.3z M40.8,73.6c0.7-0.1,0.8-0.8,1.2-1.2
		C41.1,72.3,40.9,72.9,40.8,73.6z M38.6,74.6c0.6,0.1,1.4-0.8,0.7-1.2C39.1,73.8,38.4,73.7,38.6,74.6z M49.2,75.5
		c0.1-0.4,0.9-1.3,0.2-1.7C49.2,74.1,48.5,75.1,49.2,75.5z M47.5,80.1c1-0.1,1.4-2.1,1-2.9C48.6,78.6,47.4,78.6,47.5,80.1z
		 M41.5,79.1C41.8,80.1,41.8,78.2,41.5,79.1L41.5,79.1z M35.3,82.7C35.1,84.1,35.4,81.8,35.3,82.7L35.3,82.7z M113.8,85.1
		c3.7-0.2,6.1-0.3,10.1-0.2C121.5,84.1,116.3,84.5,113.8,85.1z M125.5,84.4c-0.2,0.1-0.5,0-0.5,0.2
		C125.2,84.6,125.5,84.6,125.5,84.4z M35.3,85.8c0-0.6,0-1.2-0.5-1.2C34.9,85.1,34.5,86.1,35.3,85.8z M86.6,86.3
		c4.2-0.5,10.5,0.4,15.1-1.2C96.3,85.1,91.2,85.4,86.6,86.3z M140.9,89.9c0-0.2,0-0.5,0-0.7c-0.2,0-0.5,0-0.7,0
		C140.1,89.7,140.4,90,140.9,89.9z M142.6,89.2c-0.2,0.1-0.5,0-0.5,0.2C142.3,89.4,142.6,89.4,142.6,89.2z M102.2,90.6
		c0.4,0.9,3.4,0.6,3.8,0C105.1,90.6,103.5,90.1,102.2,90.6z M111.6,90.4c-0.2,0.1-0.5,0-0.5,0.2C111.3,90.6,111.6,90.6,111.6,90.4z
		 M107,90.6c-0.2,0.1-0.5,0-0.5,0.2C106.7,90.8,107,90.9,107,90.6z M131,94.7c1.7-0.2,4,1.1,5.5-0.2c-0.6-0.1-1.7,0.3-1.9-0.2
		c0.7-0.3,1.6-0.3,1.7-1.2C135,93.1,132.4,93.9,131,94.7z M144,93.8c0.2,0,0.5,0,0.7,0c0-0.4-0.2-0.6-0.7-0.5
		C144,93.4,144,93.6,144,93.8z M74.4,95c3.1,0.6,7.2-0.1,9.4-0.5C81.6,94.4,76.4,93.6,74.4,95z M109.2,94.7c-4.4,0.2-9.1,0.4-13,1.2
		c7.9,0.3,16.1-1,24-0.7C117.2,94.1,112.9,94.6,109.2,94.7z M120.7,95.2c0.4,0,0.6-0.2,0.7-0.5C121.1,94.7,120.6,94.7,120.7,95.2z
		 M121.9,95.2c2,0.6,4.1,0.6,5.8-0.2C125.3,95,123,94.5,121.9,95.2z M130.6,96.2c2,0.1,6.1,0.4,7-1.4
		C136.1,96.1,132.3,95.1,130.6,96.2z M128.2,95.2C128.3,95.4,128.1,95.1,128.2,95.2L128.2,95.2z M92.9,95.2c-0.3,0-0.7,0-0.7,0.2
		C92.4,95.4,92.8,95.5,92.9,95.2z M139.2,95.4C139.4,95.6,139.1,95.3,139.2,95.4L139.2,95.4z M96,97.8c0.4,0.1,1.2-0.2,1,0.5
		c-2.7-0.5-6.4-0.8-7.7,1.2c4.8,2.2,10.2,0.3,15.4,0c1.2-0.1,2.4,0.4,3.4,0.2c2.2-0.3,3.7-2.3,5.8-1.4c-0.1,0.5-1.3,0-1.2,0.7
		c4.8-0.9,11.8-1.5,16.8-2.9C118.4,95.9,106.3,96.7,96,97.8z M35,97.6C36.3,96.6,34.2,96.5,35,97.6L35,97.6z M76.1,97.8
		c2.8,0,5.4-0.2,7.7-0.7C82,97.2,77.5,96.6,76.1,97.8z M33.8,111.5c1.5,0.3-0.3,1.6,0.5,2.4c1.3-1.3,2.1-4.5,2.2-6.2
		c0,0.3-0.7,0.3-0.7,0c0.6-3.2,2.3-6.7,2.2-9.8C36.4,102.3,34.9,106.7,33.8,111.5z M90,98.1C89,97.9,90,98.8,90,98.1
		C90.3,97.9,90,97.8,90,98.1z M69.1,99.3c1.2,0.3,3.5-0.1,4.1-1.2c-1.7,0.1-2.7,0.5-3.6,0.2C70.2,98.5,69.1,98.9,69.1,99.3z
		 M88.8,98.1c-0.2,0.1-0.5,0-0.5,0.2C88.5,98.3,88.8,98.3,88.8,98.1z M39.1,100.2c-0.1-0.4,0.7-1.2,0-1.4
		C38.9,99,38.6,100.1,39.1,100.2z M74.6,99C74.8,99.2,74.5,98.9,74.6,99L74.6,99z M80.6,99C80.8,99.2,80.5,98.9,80.6,99L80.6,99z
		 M69.6,100.5c0.3,0,0.6,0,1,0c0-0.2,0-0.5,0-0.7C70,99.7,69.8,100.1,69.6,100.5z M36,121.8c1.4-2.1,1.3-5.7,2.4-8.2
		c0.5,0.1,0.2,0.9,1,0.7c-0.3-4.2,4.3-9.2,1.4-12.7C39.1,108.3,36.7,114.2,36,121.8z M59.5,102.9C59.2,103,59.5,103.2,59.5,102.9
		C59.9,102.7,59.5,102.6,59.5,102.9z M85.2,104.1c3.1-0.4,7,0,9.4-1.2C91.5,103.4,87.5,102.9,85.2,104.1z M82.8,104.3
		c0.5-0.1,1.6,0.3,1.7-0.2C84.3,103.7,82.3,104.1,82.8,104.3z M58.6,104.6c-0.1,0-0.2,0-0.2,0c-0.2,0.2-0.4,0.7,0,0.7
		C58.4,105.1,58.6,104.9,58.6,104.6C58.9,104.4,58.5,104.3,58.6,104.6z M81.6,104.3c-0.4,0.1-1.4-0.3-1.4,0.2
		C80.6,104.4,81.6,104.9,81.6,104.3z M58.8,105.8C59,105.9,58.7,105.7,58.8,105.8L58.8,105.8z M44.9,114.9
		C45,115,44.8,114.8,44.9,114.9L44.9,114.9z M32.6,116.1c0,0.2,0,0.3,0,0.5c0.6,0.4,0.7-0.8,0.2-0.7C32.9,116,32.8,116.1,32.6,116.1
		z M32.2,120.6c1.3-0.3,1.6-2.9,0.5-3.6C32.1,117.8,32.1,119.3,32.2,120.6z M34.8,118.2C34.6,119.7,34.9,117.3,34.8,118.2
		L34.8,118.2z M30.2,132.6c0.6,0.9,0.7-1.1,1.2-0.2c0.3,4.3-2.7,8-1.7,11.5c2.6-0.6,2.1-5,2.4-8.4c0.5-5.1,1.4-11,1.7-14.6
		C31.9,124.4,30.3,127.9,30.2,132.6z M22.1,133.6c-0.2-3.8,1.4-7.6,2.2-11.8c-0.1-0.2-0.2-0.3-0.5-0.2C22.5,125,19,130.1,22.1,133.6
		z M58.6,134.1c0.8-3.7,2.8-7.5,3.1-10.8C60.5,126.5,58.8,130.7,58.6,134.1z M16.6,140.1c3.8-0.4,1.7-7.3,2.4-9.6
		C17.4,133.4,17.9,136.9,16.6,140.1z M15.6,137.4C15.9,138.4,15.9,136.5,15.6,137.4L15.6,137.4z M22.8,146.6
		c1.3-2.6,3.1-6.1,3.1-9.1C24.7,140,22.2,143.7,22.8,146.6z M16.1,138.4C16.2,138.6,16,138.3,16.1,138.4L16.1,138.4z M17.5,146.8
		C17.9,147.6,18.1,145.9,17.5,146.8L17.5,146.8z M25.2,152.1c0.4,0.6,1.6,1.3,2.2,1c-0.1-1.9-0.9-3.1-1.9-4.1
		C25.4,150,25.6,150.5,25.2,152.1z M20.6,153c-1.3-0.8-3.7-0.6-5.3-1.2C16.2,153,19.2,153.3,20.6,153z M27.4,153.8
		c0-0.2-0.4-0.3-0.5,0C27.1,153.7,27.3,154.1,27.4,153.8z M51.6,183c0-0.5,0-1,0-1.4c-0.2,0-0.5,0-0.7,0C51,182.2,50.9,183,51.6,183
		z M52.1,183.8C52.4,184.7,52.4,182.8,52.1,183.8L52.1,183.8z M53,184.2C52.5,185,53.8,183.7,53,184.2L53,184.2z M51.6,185
		C51.9,185.9,51.9,184,51.6,185L51.6,185z"/>
	<path style="fill:#fff;" class="st0" d="M397.2,135.5c-0.9-1.3-2.2,0.6-2.9-0.7c-0.7,0.2,0.1,0.8,0,1.2c-4.9-0.1-8.8-0.1-13.4-0.2
		c-2.6-0.1-7.2-1-7.9-0.2c-3,3-5,7-7.9,10.3c-5.5,6.2-11.1,12.3-17.3,17c1.3,0.4,2.9-1,3.6-1.9c-2.2,3.9-8.1,6.1-12.5,8.6
		c-3.5,0.4-7.3-0.5-9.8-1.4c-2.9-1-5.6-3.5-8.9-4.6c-1-0.3-2.1-0.2-3.1-0.5c-1.1-0.4-2-1.3-3.1-1.7c-5.1-1.9-11.4-1.7-17.5-1.2
		c-3.3,0.3-5.9,1.6-8.4,1.9c-7.7,0.9-11.1-10.1-12-16.8c-2.3-2.4-4.8-5.6-3.8-10.6c-0.5-0.4-2.6,0-3.6-0.5c0.2,1,1.3,1.1,2.2,1.4
		c-2.4,0.7-4.8,0.6-7.2,0.5c1.6,0.7,2.7,2,4.1,2.9c0.1,0.8-0.5,0.8-1.2,0.7c-0.2,0.8,0.4,0.8,0.7,1c-2.7,0.8-4.8,0.7-7.2,0.5
		c1.2,0.5,3.2,1.1,2.6,2.6c-1,0.2-1.2-0.4-2.2-0.2c-0.2,0.8,1.7,1.6,2.9,1.9c-0.2,0.4-0.9,0.4-1,1c0.9,0.3,2.1-1.3,2.4-2.4
		c0.4,0,0.6,0.2,0.5,0.7c-0.2,0.1-0.4,0.2-0.5,0.5c0.3,0,0.7,0,0.7-0.2c0.2,0,0.5,0,0.7,0c0,0.5-0.7,0.3-0.5,1c-0.2,0.4,1.1,0.4,1,0
		c0.1,1.5,0.5,4.2-0.5,5.5c1,2.8,2,7.1-2.4,6.5c0.1,0.3,0.5,0.3,0.7,0.5c-11,3.7-26.1,2.1-39.1,2.9c-0.5,0.1-0.5,0.6-1,0.7
		c-0.1,0.8,0.5,0.7,0,1.2c-3-0.3-5.8,0.2-8.6,0.7c-4.7,1-8.4,4.8-12.2,6.5c-1.1,0.5-2.5,0.4-3.6,0.7c-5.7,1.7-11.8,6.7-16.8,2.2
		c-1.4,0.7-2.4-0.4-3.4-1c0.1-0.5,1-1.1,0-1.4c-0.9-0.4-0.1,1-0.7,1c-1.8-0.4-1.9-3.6-4.6-2.4c-2.5-1.9-6.5-2.3-9.4-3.8
		c-0.8-2.3-2.4-3.8-3.6-5.8c-0.7,1.6,2,3.2,1.9,4.1c-1,0.4-1.4-1.5-2.2-2.2c-0.7,0.2,0.1,0.8,0,1.2c-1.3-1.5-2.8-2.8-2.9-5.5
		c-1.5-0.2,0.3,1.5-1,1.4c0.1-1.7-1.2-2.6,0-3.4c-0.5-1-1-0.5-2.2-0.7c0.3-0.6,1.1-0.7,1.9-0.7c-0.3-1.2-2.1-0.2-3.6-0.5
		c0.6-1,2.8-0.2,3.4-1.2c-1.3-0.5-4.1,1-5-0.7c1.1-0.1,2,0.1,3.4-0.2c0-2.8-2.4-4.1-1.9-6.5c0.7-0.1,1.1,0.6,1.7,0
		c-0.8-2.5-2.4-5.4-1.9-8.4c0.9-0.5,1.1,0.5,2.2,0.5c0.9-0.6,0.5-1.1,0.5-2.4c0.7,0.2,0.6-0.3,1.2-0.2c-0.6-0.7,0.5-1.9,0-2.4
		c0.5-0.8,0.7-0.1,1.4,0c0.3-0.8,0.4-1.8,0.5-2.9c-0.7-1.2-2.4-1.3-3.1-2.4c-0.2-0.9,0.4-1,0.2-1.9c1.5,0.1,2.6,0.6,3.6,1.2
		c2.1-1.9-0.5-4.5-1.7-5.5c1.1,0.2,0.7-1.1,1.2-1.4c-1.4-1.9-2.2-3.7-1.7-6.5c0.7,0.3,0.3,1.7,1,1.9c0.6-0.3,0-1.3,0-1.7
		c0.8,0.2,0.9,1,1,1.9c1.6-0.1,1.6-2.4,3.4-1.7c0.2-1.1,0.6-2,0.5-3.4c1.8-2.3,3-5.1,3.6-8.6c4.3-10.3,8.2-23.2,10.3-36
		c0.9-5,3.6-11.4-0.7-15.1c0.6-1.6-0.4-3-0.2-4.3c0.2-1.3,1.3-2,1.9-3.1c0.6-1.1,0.5-2.5,1.2-3.4c0.9-1.1,2.8-1.8,1.9-3.8
		c0.5-0.6,0.9,0.3,1.4-0.2c2.6-3.4,6.3-5.7,9.6-8.4c0.7-0.1,0.7,0.5,1.4,0.5c27.3-5.6,56.4,2.7,81.6,6c-0.1,0.3-0.4,0.4-0.5,0.7
		c0.9,0.8,3.1,0.4,4.6,0.7c-1.2,0.9-3.3,0.7-5,0.5c-1.2,1-2.5,1.8-4.8,1.7c0.4,0.4-0.5,1-0.2,1.4c-1.7,1.4-5.3,0.9-6.7,2.6
		c0.2,0.7,0.6-0.3,1.2,0c-0.8,1.3,0.5,1.6,1.4,1.9c-0.2,0.5-0.7,0.7-1.4,0.7c-0.1,0.6,0.4,0.5,0.2,1.2c-1.1,0.3-2.1,0.7-2.4,1.9
		c-1.1,0.2-1.8,0.2-2.9,0.7c1.1,1.5-2.2,1.7-3.1,2.6c0.9,1,1.9,0,3.6,0.2c-3.7,2.9-9.8,3.3-15.4,4.3c-0.1,1,0.6,1.2,1.4,1.2
		c-8.4,3.5-24.3-1.9-31.2,3.1c0.8,4.8-1,8.6-1.4,13c0.5,0.5,2.1,0,2.6,0.5c0.6-0.3,0.8-1,1-1.7c2.1,0.3,2.9-1.6,4.8-0.7
		c0.9-0.5,0.4-1.6,2.2-1.7c0.9,0,0.1,0.2,0.2,0.7c3.2-1,6.8-0.9,10.1-1c6.5-0.2,13.7-1.7,18.5,0c0.6-0.2,1.5-0.1,1.9-0.5
		c0.5,2.2,4,2.5,7,2.9c0.8-1.2-1.7-0.8-2.4-1.2c0.2-0.6,1.7,0.1,1.9-0.5c0-0.6-0.9-0.4-1.2-0.7c0-0.5,1-0.1,1.4-0.2
		c0,2.5,3.7,1.3,3.8,3.6c-1-0.5-1.2-1.8-3.1-1.4c0.7,1.6-0.4,2.6,1.4,3.4c0.6,0,0.1-0.8,0-1c0.2-0.1,0.5,0,0.5-0.2
		c0.9,0.6,1.3,2.3,0,2.6c0.1,1.3,1,1.9,1.4,2.9c-0.1,2.2-1.4,3.2-1.7,5.3c-0.7-0.1-1-0.6-1.7-0.7c-0.4,0.8-0.8,1.6-1.4,2.2
		c1.5,2.8,5.6,4.8,3.8,9.4c-0.7,0.8-3.6-1.1-3.4,1c-1.9-0.4-3.6,0.6-5.5,1c-5.2-1-13.7-0.1-19.4,1.2c0.1,0.7,2-0.4,1.7,0.7
		c-1.3-0.2-2,0.3-2.9,0.5c-0.1,0.9,0.7,0.7,1.4,0.7c-0.4,1.7-1.7,0.3-2.9,0.2c-3.4-0.1-7.4,1.7-10.8,1.9c-0.3,0.1-0.5,0.3-0.5,0.7
		c-0.7-0.6-1.8,0.1-2.4-0.2c-0.4,0-0.2,0.6-0.2,1c-1-0.6-0.7-0.2-1.9,0c-0.9,0.2-0.5,1.7-1,2.4c-0.5-0.4,0.2-0.6-0.2-1.2
		c-1.4,1.1-1.1,2.4-1.7,4.1c1.4,0.3,0.9-1.4,2.4-1c-0.2,1-1.8,1-1,2.4c-0.4,0.5-1.7-1.1-1.4,0.7c-0.8,0.2-0.3-1-1.2-0.7
		c-0.3,1.2,1.2,0.6,1.2,1.4c-0.1,1.2-0.2-0.4-0.7-0.2c-0.2,1.2,0.3,1.4-0.7,2.4c0.7,1.1,1.2-0.4,2.6,0c-0.7,1.3-1.3,1.2-1.2,3.1
		c-2.1,0.7-4,1.8-4.8,3.8c-0.7-0.5,0.1-1.5,0-2.2c-1.5-0.9-2,1.8-3.1,1.2c-0.5,0-0.1,0.9-0.2,1.2c-0.4-0.1-0.6-0.4-1-0.5
		c-0.3,0.5-0.4,1.8-1.4,2.2c-0.7-0.6,0.3-0.5,0.2-1.2c-1.2-0.4-0.4,1.2-1.4,1c-1,3.8-2.5,7.1-3.4,11c1.2,0.4,2.1-1.3,3.8-1.2
		c-0.3,1.2-2.5,0.5-2.6,1.9c2.5,1.2,4.7-2.4,6.2-1.4c0.3-0.2,0.3-0.8,0.7-1c3.7-0.4,5.4-2.8,9.8-2.4c-0.2,0.3-0.6,0.5-1,0.7
		c3,2.1,9.8-0.7,12.7,1.7c0.5-0.4,1.7-1,2.4-0.5c0.1,0.9-1.3,0.3-1.9,0.5c0.9,0.8,2.5,0.4,2.9-0.7c0.8,0.5,1.4,1,2.6,0.5
		c-0.5,0.6,0.1,0.3,0.2,0.7c3.5,0.3,3.8-1.1,7.2-0.7c0,0.4-0.2,0.6-0.7,0.5c0,0.7,2.4,0.8,2.2-0.2c2.4-0.1,4.9,1,7.9,1
		c0.6,0.4-1.6,0.1-1.9,0.5c2.8,0.9,9,2.2,11.3,0c-0.3-0.8-1.7-0.4-1.7-1.4c2.5-0.2,4.8,1.1,7.9,1c0.6,0.4-1.6,0.1-1.9,0.5
		c1.8,1.2,5,0.9,7.7,1.2c1-1.1,1.4-2.9,2.4-4.1c-0.2-11.4,0.9-23.8,3.4-33.4c1.7-14.4,8.7-23.8,10.6-37.4c1-1,0.9-3.1,2.4-3.6
		c0.1-1,0.2-2.1,0.7-2.6c-1.3-2.5,0.2-5.9-0.5-7.2c0.3-0.8,1.5-0.6,1.9-1.2c-0.2-0.6-1.1-1.9,0.2-1.9c-0.5-0.8-0.9-1.7-1-2.9
		c0.6,0,1.2,0,1.4-0.2c-0.1-0.6-0.3-1.1-0.2-1.9c0.8,0.2,0.8-0.3,0.7-1c0.6,0.1,1,0.5,1.4,0c-0.7-0.9,0.1-2.2-1-2.9
		c0.7-1.1,1.3-3.2,0.7-4.8c1.8-0.8,2.8-2.3,4.1-3.6c2.6,1,3.8,3.5,6,5c3.3-0.2,5,1.2,7,2.4c0.9-0.7,1.6-1.8,2.4-2.6
		c4.9-1.2,4.6,3.4,4.1,6.7c-0.9,0.2-1.8,0.4-2.2,1.2c0.4,0.5,0.9,1,1.9,1c0.8-0.2,0.3-0.6,0.2-1.2c0.5,0.1,0.5-0.3,1-0.2
		c0.3-4.1,5.4-1.4,5.3,1.2c0.3,0.8-0.8,0.2-0.5,1c0,0.8,0.6,1,1,1.4c-0.5,1.3-1.3,2.2-1.9,3.4c4.2,3.1-0.9,6.7-3.4,10.1
		c-0.2,0.3-0.1,0.9-0.2,1.2c-0.8,1.2-2,1.9-2.4,2.9c-0.6,3.4-1.1,5.4-1.7,8.4c-2,10.3-4,21.4-5,32.9c-0.1,1.6,0.3,3.3-0.7,4.8
		c-0.1,0.8,0.8,0.6,0.7,1.4c-0.4,0-0.7,0.1-1,0.2c0,0.6,0.4,0.7,0.2,1.4c-2.6,3.6-1.3,9.6-2.6,14.4c11.5,2.4,26.1,4,35.3,11.3
		c1.2-0.6,2.1-1.4,2.9-2.4c-0.9-1.8-1-3.6-3.1-4.6c-0.5-3.3-3.3-6.2-4.6-9.6c0.5-1.3-0.3-2.3-1-3.1c-0.1-1.1,0.9-1,0.7-2.2
		c-1.1-0.8-2.1-0.7-3.1,0.2c0.2-1.2,1.5-1.3,2.2-1.9c0-0.9,0-1.8,0.2-2.4c-0.3-0.5-0.9-0.5-1.2-1c1-2,1.3-4.9-0.5-5.8
		c0.7-0.9,2.7-0.5,3.4-1.4c1.6,1.1,4.1,5.9,6.2,2.6c1.3,1.1,2.9,2,5.3,2.2c0.7-0.2-0.3-0.6,0-1.2c2.9,0.2,5.9-0.4,6.2-3.1
		c1.6,0.7,3.3-0.8,5,0c-0.1-1-1.6-0.5-1.4-1.7c1.7-0.4-1-0.9-2.2,0c-0.3-0.6-0.6-0.9-0.2-1.7c2.6,0.1,4.2,2.4,6.5,1.9
		c-0.7-1.5-3-1.5-4.3-2.4c2.7-1.3,5.5,1.2,8.4,1.2c4.4-6,5.7-15.3,9.4-22.1c0-4.5,4.6-7,3.4-11.3c0.2-0.6,0.8-0.8,0.7-1.7
		c-0.3-1-1.3-0.1-2.2-0.2c1.9-0.9,4.6-3.9,3.1-6c0.8,0.2,1-0.3,1.4-0.5c-1.9-2-4.5-1.4-7.2-1.2c0,0.5,0.6,0.5,1.2,0.5
		c-1.9,0.6-3.5,1.5-4.1,3.4c-1.1-1,0.7-2.6-1-3.4c1.4-0.6,1.7-2.2,2.2-3.6c1.8-0.4,2.6-1.7,4.1-2.4c-1.6-2.1-5.1-0.5-6.7,1.2
		c0.3-2.6,2.5-5.3,5-6.5c0,0.7-1,0.4-1,1.2c0.6,0.7,1.7-0.2,1.9-0.7c-0.1-0.4-0.4-0.5-1-0.5c1.3-2.3,5.1-0.7,5.8-3.6
		c-1-0.5-4.8-0.3-5.8,1.2c-0.2-1.5,2.7-1.9,3.8-2.9c0.1-0.5-0.3-0.5-0.2-1c1.3-0.2,2.1-0.8,2.2-2.2c1.1-0.1,1.7-0.7,2.4-1.2
		c-0.1-0.8-1.2-0.4-1.7-0.2c-0.1-1,1.4-0.4,1.4-1.2c-0.6-0.6-2.2-1.5-2.9-0.5c2.3-4.2,12.1-2.9,13.7-8.6c2.2-0.9,5.4-1.1,7.4,0
		c3.2-1.4,9.5-3.5,12-0.2c0,5.1,5.3,3.3,6.5,7.2c1.4-0.1,2.4-0.2,3.8,0.2c1.1,1.7,0.1,3.8-0.5,5.3c3.1,0.9,2,3.3,2.4,5.8
		c0.4,2.5,2.8,4.5,4.3,6.7c2.8,4.2,5.3,9.3,7.4,13.4c8.3,16.2,15.5,33.4,24,49.4c1.6,1.7,2,4.5,4.1,5.8c4.4,0.4,6.4,1.9,9.4,3.6
		c0.6,1.7-0.9,4.2,0.7,5c0.2,0.6-0.5,0.5-0.7,0.7c0.2,1,2,1,1.9-0.2c0.7,1,1,2.4,2.4,2.6c-0.2,0.6-0.4,1.4,0.2,1.7
		c-0.1,1.1-1.4,1.6-0.7,2.9c-0.4,0.7-1.6,0.6-2.2,1.2c0.1,0.5,1.2,0.1,1.7,0.2c-0.7,1.8-0.7,3.7-1.2,5.3c0.2,0.7,0.6,1.2,1,1.7
		c-0.5,4.6,0.2,9-1.4,12.7c1.8,5.7,4.1,13.3,2.4,19.7c-0.2,0.1-0.5,0-0.5,0.2c-1.5,0.3-2-0.6-2.9-1c-0.9-0.1-1,0.6-1.7,0.7
		c-1,0-1-0.9-1.9-1c-0.2,0.9,2.5,3.1,0.5,4.3c-1.6-0.3-1.8-1.8-2.9-2.6c-0.7,1.7-1.9,3.7-1,6.5c-0.7,0.7-1.6,0.5-2.4,0
		c-0.8,0-0.6,1-1.2,1.2c-4.2,0-4.4-4-7.4-5c0.7,1.7,1.8,3,3.1,4.1c-0.7,2,1.9,3.8,1.7,5.3c-0.7,3.9-5.7-0.3-6.7-0.5
		c-2.6-0.4-3.4,1.5-5.3,0c-2.9-2.3-4.9-7.5-7-11c-1.7-2.9-4.3-4.9-4.8-7.2c-2.8-2.7-3.6-7.5-7-9.6c-0.1-2.1-2.2-2.3-3.6-3.1
		c-0.3-2.3-2.1-4-4.8-3.1c0-0.5,0.7-0.3,0.5-1c0.8,0.7,1.5,0,2.4,0.2c2.4,0.6,3.3,3,5,4.3c0.7-0.1,0.6-1,1.4-1
		c-1.6-2.9-3.8-5.3-7.2-6.5c0.6-1.4,2.2,0.8,2.9-0.5c-0.6-0.9-1.5-1.4-2.4-1.9c0.3-1.1,0.7-1,1.4-1.2c0.1-1.3-2-0.4-2.6-1
		c0-0.8,1.5-0.1,1.4-1c-0.2-1.1-1.2-1.6-2.2-1.9c0-0.9,1.1-0.6,0.7-1.9c-0.5-0.7-0.9-0.8-1.9-0.5c1.3-0.6,0.4-1.3-0.2-1.9
		c0.7,0,1.3,0,1.2-0.7c-2.4-1.1-4.2-0.7-7.2-1c0.6-0.6,2.1-0.3,2.6-1c0-0.5-0.2-0.8-0.7-0.7c1.2-0.8,3-1,4.1-1.9
		c-2.1-1.5-3.8,0.6-5.5,1.2c-0.4,0.1-1-0.1-1.4,0c-2.2,0.5-3.6,2.3-5.5,3.1c-3.3,1.3-5.8,0.5-8.9,0.5c-2.5-0.1-4.3,0.6-5.3-0.7
		c-0.7,0.1-1.5,0.1-1.7,0.7C397.4,135.5,397.3,135.5,397.2,135.5z M391.4,28.5c0.5,0.1,0.9-0.1,1-0.5c-0.3-0.1-0.5-0.3-1-0.2
		C391.4,28,391.4,28.2,391.4,28.5z M395.5,29.4c0-0.2,0-0.3,0-0.5C395.1,28.2,394.3,29.7,395.5,29.4z M389.5,30.9c0.2,0,0.5,0,0.7,0
		c0.1-0.6-0.1-1-0.7-1C389.5,30.2,389.5,30.6,389.5,30.9z M386.9,31.6c0.3,0.3,0.9,0.3,1-0.2C387.5,31,386.9,31,386.9,31.6z
		 M315.1,33.5c1,0.4,1.6,1.3,2.9,1.4C320.2,32.8,315.4,30.6,315.1,33.5z M425.5,35.4c0-0.6,0.1-1.4-0.5-1.4
		C424.7,34.4,424.6,35.6,425.5,35.4z M314.9,36.2c0.8,0.2,1.3-0.6,0.5-0.7C315.3,35.8,315,35.8,314.9,36.2z M320.2,40.2
		c1.5,0.2,1.4-1.3,1.9-2.2C320.8,37.3,319.8,38.6,320.2,40.2z M390.5,40.2c-0.1,0.6,0.3,0.8,1,0.7c0.1-0.6-0.1-1-0.7-1
		C390.7,40.1,390.7,40.3,390.5,40.2z M298.3,40.7C298.5,40.9,298.2,40.6,298.3,40.7L298.3,40.7z M321.1,45.3
		c0.7-1.2,0.2-2.5,0.7-4.1C319.6,41.2,319,44.8,321.1,45.3z M380.9,41.9c0.3,1-0.5,0.9-0.5,1.7c1.3-0.1,2-2.1,3.6-1.2
		c-0.5,0.1-1,0.1-1,0.7c1,0.3,2.2,0.3,3.1,0.7c0.2-0.4,0.7-0.6,0.5-1.4c-0.6-0.2-1.5-0.3-2.4-0.2c0-0.3,0.3-0.3,0.2-0.7
		C382.8,41.2,382.2,41.9,380.9,41.9z M387.1,41.9c-0.1,0.7,0.8,0.5,1.2,0.7C388.6,41.7,387.6,41.5,387.1,41.9z M262.8,44.3
		C263.1,45.1,263.4,43.4,262.8,44.3L262.8,44.3z M381.6,46.5c1.3,0.6,2.5,1.1,4.1,1.4c-0.2-1-0.3-2-0.7-2.6
		C383.2,45.3,381.8,44.6,381.6,46.5z M379.7,46.2c0.7,0.2,0.5,0.2,1.2,0c0.1-0.6-0.3-0.8-1-0.7C379.9,45.9,379.8,46,379.7,46.2z
		 M378,46c0,0.3,0.1,0.5,0.2,0.7c0.5,0.1,0.5-0.3,1-0.2C379.4,45.6,378.4,45.6,378,46z M384.2,48.2c-0.8-0.5-2-0.8-3.4-0.7
		C380.8,49.1,383.7,48.7,384.2,48.2z M380.2,49.6c0,0.6,0,1.2-0.5,1.2c-0.5-0.8-1.7-0.3-2.4,0c1.9,1.8,5.6,0.1,7.9,1.4
		c-0.3-1.4-1.6-1.7-1.9-3.1C381.8,48.8,381.4,49.7,380.2,49.6z M314.2,51.3c0.2,0,0.3,0,0.5,0c0-0.3,0.3-0.3,0.2-0.7
		c-0.2,0-0.3,0-0.5,0C314.4,50.9,314.1,50.9,314.2,51.3z M382.1,52.7c0.7,0.3,1.3,0.7,2.4,0.7C384.6,52.5,382.4,51.7,382.1,52.7z
		 M307.2,53.4C306.8,55.2,307.4,52.6,307.2,53.4L307.2,53.4z M376.3,53.4C376.5,53.6,376.2,53.3,376.3,53.4L376.3,53.4z M313.4,56.1
		c0.1,1.7-2.4,2.4-2.4,5.3c1.4-0.2,1.2-2,2.4-2.4c-3.9,6.6-3.4,16.4-4.6,25.9c-0.4,3.1-1.3,6.6-1.4,8.9c-0.6,7.7-2.1,15.8-1.9,22.3
		c-0.9,1-0.7,3.1-0.7,5c1.4-0.2,1.4,1.5,2.6,0.7c1.5-7.2,1.9-14.2,2.9-22.1c1-7.9,1.4-15.9,2.9-23.3c1.6-7.8,3.4-15,4.1-22.3
		C316.2,53.7,314.4,55,313.4,56.1z M375.6,54.6c0-0.3,0.4-0.5,0-0.7C375.6,54.2,375.2,54.5,375.6,54.6z M308.2,68.3
		c-0.2,0.1-0.5,0-0.5,0.2C307.9,68.5,308.2,68.6,308.2,68.3z M261.1,71.9c0.1-1.7-2-1.4-3.4-1.7C257.9,71.8,260.1,71.3,261.1,71.9z
		 M394.1,73.6c0,0.2,0,0.3,0,0.5c0.4,0.7,0.8-0.4,1-0.7C394.6,73.3,394.5,73.6,394.1,73.6z M385,93.3c-0.9-0.1-0.6,1-1.2,1.2
		c0-0.3,0-0.6,0-1c-1.2,0.2-1.1,1.6-1.9,2.2c0.7,0.3,1-0.1,2.2,0C384.3,94.8,384.9,94.4,385,93.3c0.5-0.1,1.2-1.2,1.4-0.7
		c-0.1,0.5-0.5,1.2,0,1.7c1.4-0.4,2-1.5,2.9-1.7c-0.5,1-1.1,2-1.4,3.1c1,0.1,1.5-0.6,1.9,0.2c-0.6,0.2-1.4,0.4-1.4,1.2
		c0.9,0.6,2.2-0.1,2.9-0.5c0.6,0.8,2.6,0.3,3.6,0.7c1.3-2.4,3.5-4.3,2.9-7.9c1.4-1.4,2.3-3.3,2.9-5.5c-2.4,1-2.7,4.2-4.8,5.5
		c-1.6-2.9,4-3.5,2.9-6.7c1.2-0.3,1.2-1.8,1.7-2.9c-1.2-0.2-1.7,0.2-2.4,0.5c0-0.7,0-1.3-0.7-1.2c-0.9,3.6-2.9,6.1-4.8,8.6
		c-0.2-2.5,2.3-4.4,3.1-6.7c0-0.8,0-1.6,0-2.4c0.2-1.4,2.2-4.3,0.7-5c-1.2,1.2-1.1,3.9-3.1,4.3c-0.2,1.3-0.2,2.7-1.2,3.1
		c-0.1-0.6-0.2-1.2-1-1.2C388.4,83.8,386.4,88.3,385,93.3z M288.2,75.3C287.7,76.1,289,74.7,288.2,75.3L288.2,75.3z M392.6,77.2
		C392.3,77.3,392.7,77.5,392.6,77.2c0.7-0.5,1.4-1,1.4-2.2C393.2,75.3,392.8,76.1,392.6,77.2z M244.8,75.8
		C245,75.9,244.7,75.7,244.8,75.8L244.8,75.8z M397.7,76.7C397.8,76.9,397.6,76.6,397.7,76.7L397.7,76.7z M397.7,78.2
		c0,0.3,0.1,0.5,0.2,0.7c0.5,0.1,0.5-0.3,1-0.2C399,77.8,398,77.8,397.7,78.2z M228.2,81c1.5,0.5,2.3-0.2,4.3,0
		C232,80,229,80.6,228.2,81z M385.7,80.8c-0.5,0.5-1.6,1.7-1.2,2.4C384.9,82.5,385.7,82,385.7,80.8C386,80.7,385.7,80.5,385.7,80.8z
		 M242.9,82.5c-0.4,0.1-1.4-0.3-1.4,0.2C241.7,83,242.9,83.1,242.9,82.5z M397.2,95.2c1.1,0.3,2.2-0.7,2.9,0
		c-0.6,1.1-3.3,0.1-3.6,1.4c3.7-0.7,11.3,0.4,12.7-3.4c-2.6-2.8-3.7-7-6.7-9.4C401.1,88.1,398.4,90.9,397.2,95.2z M236.9,85.6
		c0.6,1,3.7,0.6,4.1-0.2C239.6,85.5,237.8,85.1,236.9,85.6z M259,89.9c0-1.3-1.8-3.9-2.9-4.1C257,87.3,257.8,88.8,259,89.9z
		 M250.8,88.2c0.2,0,0.5,0,0.7,0c0-0.5-0.2-0.8-0.7-0.7C250.8,87.8,250.8,88,250.8,88.2z M379.7,89.2c0.9,0.2,1.2-0.9,0.5-1
		C380,88.6,379.8,88.8,379.7,89.2z M378.7,91.8c0.1-0.7,1.5-1.5,0.5-1.9C379.2,90.6,378.1,91.3,378.7,91.8z M210.2,92.1
		C210.4,92.2,210.1,92,210.2,92.1L210.2,92.1z M383.8,93c0.8,0.1,0.6-0.9,1-1.2C384,91.9,383.7,92.3,383.8,93z M377.8,93.3
		C377.4,93.4,377.8,93.6,377.8,93.3C378.5,93.2,377.5,92.3,377.8,93.3z M198,95.9c-0.2-0.8,0.9-2.6-0.2-2.9
		C197.3,93.8,197.6,95.4,198,95.9z M377.3,94C377.4,94.2,377.2,93.9,377.3,94L377.3,94z M386.2,95.7c0.2,0,0.3,0,0.5,0
		c0-0.3,0.3-0.3,0.2-0.7c-0.2,0-0.5,0-0.7,0C386.2,95.2,386.2,95.4,386.2,95.7z M404.4,97.4c2.4-0.1,4.8-0.3,5.3-2.4
		C407.5,95.3,406,96.4,404.4,97.4z M212.2,96.2c-2,0.1-4.6-0.4-5.8,1.2c3.3-0.4,9.6,0.1,12.7-1.2C217.1,95.8,214.5,96,212.2,96.2z
		 M381.1,97.4c0.6,0.2,1.9,0.3,2.2-0.5C382.8,96.3,381.2,96.7,381.1,97.4z M386.2,97.4c0.2-0.8-0.3-0.8-1-0.7
		C385.1,97.3,385.5,97.4,386.2,97.4z M387.1,97.1C387.3,97.3,387,97,387.1,97.1L387.1,97.1z M221.5,97.4c-4.5-0.4-11,0-15.4,0.7
		c0.1,2.5-0.7,4.5,0.2,5.8c1.2,0-0.1-1.2,0.5-1.4c1.1,0.8,1.1-0.5,1.2-1c3-1,6.9-1.1,9.8-2.2c-3.8,0.1-8.4,0.6-11.3,0.7
		c1-1.6,3.8-1.8,6-1.9c3.8-0.3,8.1,0.1,11.5,0C223.9,96.5,222.5,97.4,221.5,97.4z M217.9,101.4C218.3,102.2,218.5,100.5,217.9,101.4
		L217.9,101.4z M358.6,104.8c2.2-0.3,4.2,0.2,5-1.7C361.4,103.2,359.7,103.7,358.6,104.8z M365.8,103.6c0.4,0.4,1.4,0.4,1.2-0.5
		C366.4,103.1,365.8,103.1,365.8,103.6z M371.5,103.6c0.7,0,1.6,0.2,1.7-0.5C372.4,103.1,371.8,103.1,371.5,103.6z M369.8,103.4
		c-0.2,0.1-0.5,0-0.5,0.2C369.5,103.5,369.8,103.6,369.8,103.4z M356.6,104.3C356.8,104.5,356.5,104.2,356.6,104.3L356.6,104.3z
		 M458.2,104.8c0-0.4-0.2-0.6-0.5-0.7C457.7,104.5,457.9,104.7,458.2,104.8z M212.9,105.5c0,0.2,0,0.3,0,0.5
		c0.6,0.4,0.7-0.8,0.2-0.7C213.1,105.4,213.1,105.6,212.9,105.5z M377,106.7c3.1-0.2,6.5,0.5,8.2-0.7
		C382.6,106.7,379,105.1,377,106.7z M210.7,108.9c1.2-0.1,2.6,0,2.9-1c-0.4-0.5-1,0.4-1.2-0.5c0.4,0,0.6-0.2,0.7-0.5
		c-0.6,0.1-0.2-0.9-1-0.7C212.1,107.6,211.4,108.2,210.7,108.9z M463.2,113.9c0.2,1.1,0.5,2.1,1.7,2.2c0.9-1.6-1.8-3.2-1.9-5.3
		c-1.3-1.3-2.1-3-3.1-4.6c-0.2,0-0.5,0-0.7,0C459.9,109.4,461.8,111.4,463.2,113.9z M395.3,107.7c0.4-0.1,1.2,0.2,1-0.5
		C395.7,107.1,395.3,107.3,395.3,107.7z M391.7,107.7C391.8,107.8,391.6,107.6,391.7,107.7L391.7,107.7z M378.7,108.6
		C378.9,108.8,378.6,108.5,378.7,108.6L378.7,108.6z M211,110.1c-0.1-0.5-0.1-1-0.7-1C209.8,109.5,210.3,110.1,211,110.1z
		 M460.1,110.6c0.1-0.5-0.1-0.9-0.5-1C459.7,110,459.4,110.8,460.1,110.6z M212.4,110.3C212.7,111.3,212.7,109.4,212.4,110.3
		L212.4,110.3z M208.3,110.8C207.7,111.6,209.1,110.2,208.3,110.8L208.3,110.8z M461.8,113.7c0-1.5-0.6-2.5-1.7-2.9
		C460.3,112.1,460.7,113.2,461.8,113.7z M208.1,114.4c0.7,0,1.1-1.4,1.7-0.7c-0.6,1.2-2.4,1.2-2.2,3.1c1.9-0.4,2-2.7,3.8-3.1
		c-0.2-0.9,0.5-1.4,0-1.9C210.5,111.9,208.2,112.7,208.1,114.4z M212.4,112C212.6,112.2,212.3,111.9,212.4,112L212.4,112z
		 M192.2,138.4c0,0.6,0,1.2-0.2,1.4c1,0.2,1.4-0.2,2.2-0.2c3.1-8.3,5.8-18.1,7.2-27.4c-1.5,0.3-1,2.6-2.6,2.2
		c-1.2,6.5-3.8,12.7-4.3,19c-1.3,0-0.6,1.9-1.9,1.9c0.8-4.9,3.2-9.3,2.2-14.2c-2.8,1.5-2.4,4.8-3.6,8.9c-0.9,3.4-2.6,5.5-1.9,7.9
		c-0.3,0.5-0.6,1-0.7,1.7c0.4,0.1,0.5,0.4,0.5,1c0.9,0,1.8,0,2.4-0.2C191.9,140,191.6,138.7,192.2,138.4z M196.6,135.5
		c1.5-1,1.4-3.2,1.9-5c1.6-5.6,3.9-11.8,4.6-18.2c-0.2,0-0.5,0-0.7,0C200.8,120.4,198.1,128.1,196.6,135.5z M182.9,113.2
		C183,113.4,182.8,113.1,182.9,113.2L182.9,113.2z M211.7,113.7C212,114.5,212.3,112.7,211.7,113.7L211.7,113.7z M213.4,114.9
		c0-0.1,0-0.3,0.2-0.2c0-0.3-0.1-0.6-0.5-0.5C213.2,114.4,213.1,114.8,213.4,114.9z M203.5,117c0.9,0.4,1.5-1.3,1.7-2.4
		c-0.2,0-0.5,0-0.7,0C204.7,116,203.5,115.9,203.5,117z M211.7,115.1C212,115.9,212.3,114.2,211.7,115.1L211.7,115.1z M462.5,115.1
		C462.6,115.3,462.4,115,462.5,115.1L462.5,115.1z M210.5,115.8c0.2,0,0.3,0,0.5,0c0-0.2,0-0.3,0-0.5c-0.2,0-0.3,0-0.5,0
		C210.5,115.5,210.5,115.7,210.5,115.8z M209.5,116.6c0.4,0,0.8,0,0.7-0.5c-0.2,0-0.3,0-0.5,0C209.8,116.3,209.6,116.4,209.5,116.6z
		 M302.4,118.2c0.7,0.4,0.7-1.1,0-0.7C302.4,117.8,302.4,118,302.4,118.2z M186.7,131.4c-0.8,1.5-2.2,4.4-1.4,6
		c2.1-1.6,1.6-5.2,2.4-8.9c0.9-4.6,4.1-7.6,2.4-10.8C189.2,122.5,187.3,126.3,186.7,131.4z M159.8,120.9c0.2-0.3,0.3-0.6,0.2-1.2
		c-0.2,0-0.5,0-0.7,0C159.3,120.3,159.3,120.8,159.8,120.9z M185.3,127.1c0.8-0.6,1.5-2.5,1-3.6
		C185.9,124.7,185.4,125.8,185.3,127.1z M412.8,128.1c0.4-0.5,0.9-1,0.7-2.2c-4.8,2.5-12.5-0.3-16.6,2.6c1.9,0.8,5.8-0.2,7.9,0.2
		c-0.9,0.9-3.4,0.3-4.6,1c3.3,1.7,11.8,1.4,14.6-1.4C414,128.3,413.8,127.5,412.8,128.1z M185,129.8c-0.2-0.9,0.9-1.6,0.2-2.2
		C184.9,127.8,184.5,129.3,185,129.8z M322.6,128.6c-0.6-0.4-2-1.2-2.9-0.5C320.4,128.2,322,129.8,322.6,128.6z M334.6,128.6
		c-0.1,0.9,1.6,1.1,1.9,0.7C335.9,129,335.4,127.8,334.6,128.6z M188.9,131.7c0.1-1,1.4-2.1,0.7-3.1
		C189.3,129.4,188.3,130.8,188.9,131.7z M178.6,129.3C178.7,129.4,178.5,129.2,178.6,129.3L178.6,129.3z M337,130
		c0.8,0,1.3,1.5,2.2,0.7C338.5,130.4,337.4,129,337,130z M183.4,134.8c0.2-1.3,1.9-3.5,1-4.3C184,131.7,182.8,133.4,183.4,134.8z
		 M241,131.2C241.1,131.4,240.9,131.1,241,131.2L241,131.2z M401,132.2c2.3,0.2,7.1,0.9,8.4-0.7C406.8,131.6,403.3,130.8,401,132.2z
		 M229.9,131.7c-0.2,0.5,1.2,0.6,2.2,0.5c0.7,1.7,4.8-0.3,8.9,0.2C238.3,131,232.4,131.8,229.9,131.7z M188.4,132.2
		C188.6,132.3,188.3,132.1,188.4,132.2L188.4,132.2z M243.1,132.2C244.4,132.8,244.3,131.3,243.1,132.2L243.1,132.2z M248.2,132.2
		c-0.3,0-0.7,0-0.7,0.2C247.7,132.4,248.1,132.4,248.2,132.2z M263.8,132.2c-0.3,0-0.7,0-0.7,0.2
		C263.3,132.4,263.7,132.4,263.8,132.2z M187.9,134.8c0-0.7,1-1.5,0.2-2.2C188.2,133.3,187.2,134.2,187.9,134.8z M423.8,133.1
		c0.2,0,0.3,0,0.5,0c0-0.2,0-0.3,0-0.5c-0.2,0-0.3,0-0.5,0C423.8,132.8,423.8,133,423.8,133.1z M261.4,133.4
		C261.5,133.5,261.3,133.3,261.4,133.4L261.4,133.4z M466.6,133.8c-0.1,3.7,3.5,5.9,4.8,9.1c0.5,1.2-0.1,2.4,1.4,2.9
		c0.6-1.9-1.2-3.4-1.2-5.5c-1.8-0.8-2.5-3-1.9-5.5C468.6,134.6,467.4,133.5,466.6,133.8z M367.4,136.7c0.1-1,0.9-1.2,0.7-2.4
		c-0.7,0.3-1.2,0.3-1.9,0c-3.9,7-8.3,12.8-12.5,19c2.3,0.2,5.5-2.9,7.2-4.8c3.5-3.9,7.5-9.2,9.8-13.4c-0.9,0.2-0.9-0.5-1.7-0.5
		C368.4,135.1,368.3,136.3,367.4,136.7z M254.6,135c0.6,0.8,2.8,0.9,3.1,0C256.8,134.8,255.5,134.6,254.6,135z M244.3,135.3
		C244.5,135.4,244.2,135.2,244.3,135.3L244.3,135.3z M196.3,136.2C196.6,137.2,196.6,135.3,196.3,136.2L196.3,136.2z M257.5,136.2
		c-0.3,0-0.7,0-0.7,0.2C257.1,136.4,257.5,136.5,257.5,136.2z M263,136.7c0.6-0.6-0.8-0.6-0.7-0.2
		C262.3,136.5,263.1,136.6,263,136.7z M256.8,137.4c0.3,0.3,0.7,0.1,1-0.2C257.4,136.9,256.9,136.9,256.8,137.4z M255.1,138.2
		c-0.2,0.1-0.5,0-0.5,0.2C254.8,138.3,255.1,138.4,255.1,138.2z M184.6,138.6C184.7,138.8,184.5,138.5,184.6,138.6L184.6,138.6z
		 M181.9,138.9C181.3,139.7,182.7,138.3,181.9,138.9L181.9,138.9z M185,140.8c0-0.6-0.1-1-0.5-1.2C184.3,139.9,184,141.2,185,140.8z
		 M264,139.8C264.3,140.6,264.6,138.9,264,139.8L264,139.8z M207.6,140.8c3.8-0.3,8.1-0.1,11.3-1
		C214.8,139.9,210.7,139.9,207.6,140.8z M219.6,140.1C219.8,140.2,219.5,140,219.6,140.1L219.6,140.1z M248.4,141.5
		c-8-0.7-17.1-1.6-25.2-1.4C231.7,140.8,240,141.6,248.4,141.5z M186,141.3c0.7,0.4,0.7-1,0.2-1C186.2,140.6,185.9,140.8,186,141.3z
		 M207.4,140.8C206,140.2,206.1,141.6,207.4,140.8L207.4,140.8z M180.5,143.7c1,0,1.3-2.4,0.2-2.4
		C180.9,142.3,180.4,142.7,180.5,143.7z M184.6,141.8C184.9,142.6,185.2,140.8,184.6,141.8L184.6,141.8z M249.6,141.5
		c-0.2,0.1-0.5,0-0.5,0.2C249.3,141.7,249.6,141.8,249.6,141.5z M251.5,141.8C250,141.5,251,142.5,251.5,141.8L251.5,141.8z
		 M255.1,142.5C255.3,142.6,255,142.4,255.1,142.5L255.1,142.5z M180.5,144.9c0.4,0,0.6-0.2,0.7-0.5
		C180.8,144.4,180.4,144.4,180.5,144.9z M464.4,145.4c-1.4,2.4,2.6,3.3,2.2,6.2c1.9,0.5,2.1,2.7,3.8,3.4
		C468.4,151.7,468.3,146.6,464.4,145.4z M199.9,149c-0.7,0.8-2.6,0.2-2.9,1.4c6.6-0.6,14.7-2.4,22.8-2.4c3.6,0,7.9,1.3,11-0.2
		c-1,0.1-2.6-0.1-1.4-0.7c-15.6-1.5-33.6-0.2-44.9,6C190.1,153,193.7,149.1,199.9,149z M261.1,146.6
		C261.3,146.9,261.4,146.5,261.1,146.6C261,146.2,260.8,146.6,261.1,146.6z M261.6,147.8c0.2,0,0.3,0,0.5,0c0-0.3,0.3-0.3,0.2-0.7
		c-0.2,0-0.5,0-0.7,0C261.6,147.3,261.6,147.5,261.6,147.8z M233.8,147.3c-0.7,0.2-2.1-0.3-2.4,0.2
		C232.4,147.6,232.9,147.8,233.8,147.3z M264.7,147.5c-0.1-0.1-1.1-0.6-1.2,0C263.9,147.4,264.5,148.2,264.7,147.5z M465.4,151.4
		c-0.4-1.8-1.2-3.3-2.6-4.1C463.3,149,464,150.5,465.4,151.4z M238.6,147.5c-0.3,0-0.7,0-0.7,0.2
		C238.1,147.7,238.5,147.8,238.6,147.5z M240,147.8c-0.2,0.1-0.5,0-0.5,0.2C239.7,147.9,240,148,240,147.8z M241.4,147.8
		c-0.3,0.1-1.2-0.3-1.2,0.2C240.6,147.9,241.5,148.3,241.4,147.8z M462,149.7c0.2-1-1-0.8-0.7-1.9c-0.2,0-0.5,0-0.7,0
		C460.6,148.9,461.2,149.3,462,149.7z M233,148.5c1.1,0.3,4.4,0.7,4.8-0.5C236.4,148.3,233.7,147.4,233,148.5z M239.5,148.5
		c-0.5-0.1-0.4-0.7-1.2-0.5C238,148.7,239.3,149,239.5,148.5z M265.9,148.5c-0.7-0.3-2.9-0.4-3.6,0
		C263.2,148.6,265.1,149.1,265.9,148.5z M259.7,149.7c-0.3,1.4,2.7,1.3,2.2-0.2C260.9,149.3,260.7,149.9,259.7,149.7
		c0.2-0.4,0.6-0.5,1.2-0.5c0-1.3-2.1-0.5-2.2,0.2C259.2,149.3,259.4,149.6,259.7,149.7z M245.3,149
		C245.4,149.1,245.2,148.9,245.3,149L245.3,149z M465.4,157.4c-1.2-3.3-3.6-5.3-5-8.4c-0.2,0-0.5,0-0.7,0
		C461.1,152.2,462.6,155.4,465.4,157.4z M223.4,149.9c3.3,0,6.2,0.4,9.6,0.2C230.1,149.1,226.3,149,223.4,149.9z M458.6,151.6
		c0.3-1.2-0.7-1.2-1.2-1.7C457.8,150.5,457.7,151.6,458.6,151.6z M265.2,150.2c-0.3,0-0.7,0-0.7,0.2
		C264.8,150.4,265.2,150.4,265.2,150.2z M464.2,152.8c-0.2,1.4,0.9,1.5,1.7,1.9c-0.2,0.7,0.2,0.9,0.2,1.4c0.6,0,0.7,0.4,1.2,0
		c-0.6-1.4-1.8-2.4-1.9-4.3c-0.1,0.5-1.1,0.1-1.2,0.5c-0.5-0.7-0.9-2.7-1.9-1.9C462.7,151.4,463.5,152.8,464.2,152.8z M222,152.1
		c1.6-0.9,4.2-0.8,6.5-1C227.3,149.7,222.1,150.1,222,152.1z M215,151.1c0.8,1.3,3.5,1.2,4.3,0C218.2,151,216.2,151.1,215,151.1z
		 M260.9,153.3c0.7,0.2,1.1,0.8,2.2,0.7c0.6-0.8,0.2-1,0.7-1.9C262.6,151.1,260.9,151.3,260.9,153.3z M455,151.8c0.2,0,0.3,0,0.5,0
		c0-0.2,0-0.3,0-0.5c-0.2,0-0.3,0-0.5,0C455,151.5,455,151.7,455,151.8z M189.8,170.1C189.5,170.2,189.9,170.4,189.8,170.1
		c1.7-0.7,3-1.8,4.3-2.9c1.5-0.1,1.5-1.7,3.4-1.4c-0.4,0.8-0.6,1.4,0,2.2c6.1-3,12.4-6.9,20.6-7.7c3.8-0.4,6.8-0.5,10.1-1.7
		c-0.6,0-1-0.1-1.2-0.5c3-0.6,7-0.8,10.6-1c1.7-0.1,3.8,0.6,4.8-0.7c-4.4-1.8-10.1,0.9-14.4,0c0.4-0.6,1-1.1,1-1.4
		c0.8-0.1,2.1,0.3,2.2-0.5c-0.4,0-0.6-0.2-0.7-0.5c3.5-1,6.4,0.2,9.4-1c-1.5,0.2-2.4-0.3-3.8-0.2c0.2-0.7-0.3-0.6-0.2-1.2
		c-1.8,0-3.5,0-5.3,0c-0.3,1,0.7,0.8,1,1.2c-0.6,0.2-2.1-0.5-1.9,0.5c0.1,0.3,0.7,0.1,0.7,0.5c-1.3,0.1-3.2-0.4-3.1,1
		c0.2,0.5,1.3-0.1,1.4,0.5c-4.2,0.1-7.4,2.3-11.3,1.9c1.5-0.1,2.8-0.4,3.6-1.7c-2,0.4-4.3,0.4-4.6,2.4c0.7,0,1.2,0.1,1.4,0.5
		c-10.9,0.1-19,3.1-26.4,6.7c0.1-0.4,0.4-0.6,0.5-1c-2.5,1.2-4.6,2.7-6.2,4.8c0.6,1.7-0.7,1.9-1,3.4c3-0.1,3.6-2.5,6-3.1
		C190.5,169.6,189.9,169.6,189.8,170.1z M463.4,157.8c-1.1-2.5-2.1-5-4.3-6.2C459.3,154,461.1,156.8,463.4,157.8z M253.4,152.8
		c-0.5,0-0.3-0.7-1-0.5C252.2,152.9,253.3,153.4,253.4,152.8z M227.5,152.6c-0.2,0.1-0.5,0-0.5,0.2
		C227.2,152.7,227.5,152.8,227.5,152.6z M249.4,153c0.2,0,0.5,0,0.7,0c0-0.4-0.2-0.6-0.7-0.5C249.4,152.7,249.4,152.9,249.4,153z
		 M257.8,153.3c-0.3,1.2,2.3,1.3,2.6,0.5c-0.7-0.2-0.8-1.2-1.7-1.2C259,153.4,258.4,153.3,257.8,153.3z M212.2,152.8
		c-0.5,0.1-1.6-0.3-1.7,0.2C211,152.9,212.1,153.3,212.2,152.8z M243.4,153.5c0.5-0.1,1.4,0.3,1.2-0.5c-0.4,0-0.8,0-1.2,0
		C243.4,153.2,243.4,153.4,243.4,153.5z M254.4,153.8c0-0.2,0-0.5,0-0.7c-0.2,0-0.5,0-0.7,0C253.6,153.6,253.9,153.8,254.4,153.8z
		 M265.9,153.3C266.1,153.4,265.8,153.2,265.9,153.3L265.9,153.3z M448.1,153.3c0,0.2,0.1,0.2,0.2,0.2c0.4,0.9,1.7,2.9,2.6,1.7
		c-0.8-0.7-1.7-1.2-2.6-1.7C448.4,153.3,448.2,153.3,448.1,153.3C447.9,152.9,447.8,153.3,448.1,153.3z M218.9,154.7
		C216.3,154.4,217.4,155.5,218.9,154.7c2.6-0.2,5.8,0.2,7.4-1C224.1,153.6,219.7,152.8,218.9,154.7z M251.3,153.8
		C250.7,154.6,252.1,153.2,251.3,153.8L251.3,153.8z M250.1,154.5C250.2,154.6,250,154.4,250.1,154.5L250.1,154.5z M239.8,155
		c-0.4-0.1-1.3-0.9-1.7-0.2C238.7,154.8,239.4,156,239.8,155z M247.7,154.5c-0.2,0.1-0.5,0-0.5,0.2
		C247.4,154.7,247.7,154.7,247.7,154.5z M244.1,155.4c1-0.2,1.4-0.1,2.9-0.2C246.8,154.3,244.3,154.8,244.1,155.4z M265.9,155
		C266.1,155.1,265.8,154.9,265.9,155L265.9,155z M221,155.7c0.2,0,0.5,0,0.7,0c0-0.4-0.2-0.6-0.7-0.5C221,155.4,221,155.5,221,155.7
		z M469,156.6c0.6-0.3,0.6-1.4-0.5-1.2C468.3,156,468.1,156.6,469,156.6z M192.5,156.4c0.6,0,1.1-0.1,1.4-0.5
		C193.3,155.9,192.5,155.8,192.5,156.4z M245.5,156.4c1,0,2.1,0,3.1,0C248.3,155.3,246.1,156.2,245.5,156.4z M249.8,156.2
		C250.1,157.1,250.1,155.2,249.8,156.2L249.8,156.2z M458.2,157.4c0-0.4,0-0.8,0-1.2c-0.3,0-0.5-0.1-0.7-0.2
		C457,156.4,457.4,157.4,458.2,157.4z M449.5,156.6C449.7,156.8,449.4,156.5,449.5,156.6L449.5,156.6z M188.4,157.8
		c1.5-0.1,2.8-0.4,3.6-1.2C190.3,156.5,189.3,157.1,188.4,157.8z M261.8,157.1c1.3,0.2,4,0.7,4.6-0.5
		C264.7,156.7,262.9,156.5,261.8,157.1z M450,157.8c0.7,0.4,0.7-1.1,0-0.7C450,157.4,450,157.6,450,157.8z M466.1,157.4
		c0.1,0.7,0.5,1.1,1.2,1.2c0.2-0.3,0.3-0.6,0.2-1.2C467,157.3,466.5,156.9,466.1,157.4z M196.6,157.8c-0.8,0-1.8-0.1-1.9,0.7
		C195.6,158.6,196.1,158.3,196.6,157.8C196.9,157.7,196.5,157.5,196.6,157.8z M262.6,158.3c0.4,0,0.8,0,0.7-0.5c-0.2,0-0.3,0-0.5,0
		C262.8,158.1,262.6,158.1,262.6,158.3z M459.4,158.8c0.1-0.6-0.1-1-0.7-1C458.7,158.3,458.7,158.9,459.4,158.8z M190.8,158.3
		C191,158.5,190.7,158.2,190.8,158.3L190.8,158.3z M466.1,164.6c-1.2-0.2-2.5-1.2-3.4-1c4,2.4,6.6,6.2,9.4,9.8
		c1-4.4-3.9-5.1-4.8-8.4c0.3,0.1,0.5,0.3,1,0.2c0.2-3.2-2.6-5.2-4.3-7.2c-0.5,0.7,1.2,2.3,0.5,3.1c-1.5-0.6-1.3-2.9-3.1-3.1
		C461.7,161.4,464.7,162.2,466.1,164.6z M188.6,158.8c0.7,0,1.3-0.1,1.7-0.5C189.6,158.4,188.7,158.1,188.6,158.8z M241.2,158.3
		C239.7,158,240.7,159.1,241.2,158.3L241.2,158.3z M249.4,158.8C249.5,159,249.3,158.7,249.4,158.8L249.4,158.8z M192.5,159.3
		c0.4,0,0.8-0.2,1-0.5C192.9,158.7,192.5,158.9,192.5,159.3z M184.3,163.4c2.6-1,5.2-2,7-3.8C188.6,160.4,184.9,160.3,184.3,163.4z
		 M451.9,162.9c-0.2-1.4-0.8-2.4-2.2-2.6C449.9,161.7,450.8,162.4,451.9,162.9z M184.1,161.2c0.6-0.1,1-0.2,1.2-0.7
		C184.6,160.4,184,160.5,184.1,161.2z M452.9,161.4C452.7,162.9,454,161.6,452.9,161.4L452.9,161.4z M185.3,164.8
		c0.9-0.8,2.5-0.9,2.9-2.2C187.3,163.3,184.7,163.5,185.3,164.8z M180,164.1c0.8-0.3,1.6-0.4,2.2-1
		C181.6,162.8,180.3,163.4,180,164.1z M453.8,165.8c-0.1-0.4,0.2-1.2-0.5-1C453.4,165.2,453.5,165.6,453.8,165.8z M457.4,168.4
		c0.5-0.9-0.8-1.6-1-2.6c-0.6,0.1-0.9,0-1.2-0.2C455.4,167.1,456.6,167.5,457.4,168.4z M455.8,168.6c0.4-1.2-0.9-2.2-1.9-2.6
		C454.2,167.2,454.5,168.4,455.8,168.6z M176.2,168.2C176.3,168.3,176.1,168.1,176.2,168.2L176.2,168.2z M178.6,170.6
		C177.8,169.8,177.8,171.4,178.6,170.6L178.6,170.6z"/>
	<path style="fill:#fff;" class="st0" d="M376.6,41.9c0-0.2,0.3-0.2,0.5-0.2C377,41.9,376.7,41.9,376.6,41.9z"/>
	<path style="fill:#fff;" class="st0" d="M44.6,44.1C45.4,43.5,44.1,44.9,44.6,44.1L44.6,44.1z"/>
	<path style="fill:#fff;" class="st0" d="M39.6,47.2c0.2,0,0.3,0,0.5,0c0,0.2,0,0.3,0,0.5c-0.2,0-0.3,0-0.5,0C39.6,47.5,39.6,47.4,39.6,47.2z"/>
	<path style="fill:#fff;" class="st0" d="M259.4,47.9c0-0.2,0.3-0.2,0.5-0.2C259.9,47.9,259.6,47.9,259.4,47.9z"/>
	<path style="fill:#fff;" class="st0" d="M35.3,53.4c0-0.2,0.3-0.2,0.5-0.2C35.8,53.4,35.5,53.4,35.3,53.4z"/>
	<path style="fill:#fff;" class="st0" d="M254.4,53.2c0,0.6-0.8,0.5-1.4,0.5C253.2,53.3,253.7,53.2,254.4,53.2z"/>
	<path style="fill:#fff;" class="st0" d="M379.9,54.6c0-0.3,0.4-0.2,0.7-0.2C380.6,54.7,380.2,54.6,379.9,54.6z"/>
	<path style="fill:#fff;" class="st0" d="M382.1,54.6c-0.1,0.3-0.3,0.5-0.7,0.5C381.2,54.6,381.7,54.7,382.1,54.6z"/>
	<path style="fill:#fff;" class="st0" d="M382.6,54.9c0.2,0,0.2,0.2,0.5,0.2C382.9,55.7,381.9,55.3,382.6,54.9z"/>
	<path style="fill:#fff;" class="st0" d="M314.9,55.4c0.6,0.6-0.2,1.9-1,1.9C313.4,56.5,314.8,56.2,314.9,55.4z"/>
	<path style="fill:#fff;" class="st0" d="M380.2,64c0.4-0.7,1.1,0.2,1,0.7C380.6,64.6,380.6,64.1,380.2,64z"/>
	<path style="fill:#fff;" class="st0" d="M97.7,68.3c0.2-1,0.8-1.7,1.2-2.6c0.5,0.7-0.8,1.8-1,2.6C97.8,68.3,97.8,68.3,97.7,68.3z"/>
	<path style="fill:#fff;" class="st0" d="M34.8,66.4c0.6,0.2,0.2,1.4,0.7,1.7C34.9,68.8,34.7,67.2,34.8,66.4z"/>
	<path style="fill:#fff;" class="st0" d="M94.1,67.8C94,67.7,94.2,68,94.1,67.8L94.1,67.8z"/>
	<path style="fill:#fff;" class="st0" d="M256.1,67.8c0.2,0,0.3,0,0.5,0c0,0.2,0,0.3,0,0.5c-0.2,0-0.3,0-0.5,0C256.1,68.2,256.1,68,256.1,67.8z"/>
	<path style="fill:#fff;" class="st0" d="M259,67.8c-0.2,0.4-0.6,0.5-1.2,0.5C257.8,67.8,258.4,67.8,259,67.8z"/>
	<path style="fill:#fff;" class="st0" d="M262.6,67.8c1.6,0.1,2.5,0.8,3.1,1.9C264.7,69.1,263.4,68.7,262.6,67.8z"/>
	<path style="fill:#fff;" class="st0" d="M93.8,68.3C93.8,68,94.2,68.2,93.8,68.3L93.8,68.3z"/>
	<path style="fill:#fff;" class="st0" d="M97.7,68.3c-0.1,0.2,0,0.5-0.2,0.5C97.5,68.6,97.4,68.3,97.7,68.3z"/>
	<path style="fill:#fff;" class="st0" d="M97.4,68.8c-0.1,0.2,0,0.5-0.2,0.5C97.3,69.1,97.2,68.8,97.4,68.8z"/>
	<path style="fill:#fff;" class="st0" d="M97.2,69.3c-0.1,0.2,0,0.5-0.2,0.5C97,69.6,97,69.3,97.2,69.3z"/>
	<path style="fill:#fff;" class="st0" d="M96.7,70c0-0.1,0-0.3,0.2-0.2C96.9,69.9,96.9,70,96.7,70z"/>
	<path style="fill:#fff;" class="st0" d="M96.7,70C96.9,71,96,70,96.7,70L96.7,70z"/>
	<path style="fill:#fff;" class="st0" d="M96,71.2C96,70.9,96.3,71.1,96,71.2L96,71.2z"/>
	<path style="fill:#fff;" class="st0" d="M96,71.2C96,71.5,95.7,71.3,96,71.2L96,71.2z"/>
	<path style="fill:#fff;" class="st0" d="M262.6,72.2C262.3,72.2,262.4,71.8,262.6,72.2L262.6,72.2z"/>
	<path style="fill:#fff;" class="st0" d="M262.6,72.2c0.1,0,0.3,0,0.2,0.2C262.7,72.4,262.5,72.4,262.6,72.2z"/>
	<path style="fill:#fff;" class="st0" d="M32.4,77.4c0.7,0.4-0.5,0.9-0.2,1.7c-0.5,0.1-0.6-0.2-1-0.2C31.3,78.1,32.3,78.2,32.4,77.4z"/>
	<path style="fill:#fff;" class="st0" d="M33.4,80.1c-0.6,0-0.9-0.3-1-1C32.8,79.3,33.1,79.7,33.4,80.1z"/>
	<path style="fill:#fff;" class="st0" d="M30,79.6C29.9,79.5,30.2,79.8,30,79.6L30,79.6z"/>
	<path style="fill:#fff;" class="st0" d="M33.4,80.1C35.1,80,33.7,81.4,33.4,80.1L33.4,80.1z"/>
	<path style="fill:#fff;" class="st0" d="M390.2,83.7c0.9,0.5-0.8,2,0.7,1.9c-0.8,1.1-0.6,3.2-1.7,4.1C389,87,389.3,85.5,390.2,83.7z"/>
	<path style="fill:#fff;" class="st0" d="M158.4,86.6c0-0.2,0.3-0.2,0.5-0.2C158.9,86.6,158.6,86.5,158.4,86.6z"/>
	<path style="fill:#fff;" class="st0" d="M389.5,94.2c-0.2-3.1,2.1-3.8,2.6-6.2c1.1,2.6-3,3.1-1.7,6C390,93.9,390,94.3,389.5,94.2z"/>
	<path style="fill:#fff;" class="st0" d="M396.2,91.8C396.5,90.9,396.5,92.8,396.2,91.8L396.2,91.8z"/>
	<path style="fill:#fff;" class="st0" d="M389.5,94.2C389.8,95.2,388.8,94.3,389.5,94.2L389.5,94.2z"/>
	<path style="fill:#fff;" class="st0" d="M392.2,94.5c0.7,0.2-0.4,0.8,0.2,1.2c0.7-0.2,1.5-0.3,2.2-0.5c0,1.4-2.7,1.1-3.6,0.7
		C391,95.1,392,95.2,392.2,94.5z"/>
	<path style="fill:#fff;" class="st0" d="M383.3,95.2C383.2,95.1,383.4,95.4,383.3,95.2L383.3,95.2z"/>
	<path style="fill:#fff;" class="st0" d="M100.3,97.8C100.2,97.7,100.5,98,100.3,97.8L100.3,97.8z"/>
	<path style="fill:#fff;" class="st0" d="M140.9,99C140.4,99.8,139.3,98.8,140.9,99L140.9,99z"/>
	<path style="fill:#fff;" class="st0" d="M218.6,107C218.5,106.9,218.8,107.1,218.6,107L218.6,107z"/>
	<path style="fill:#fff;" class="st0" d="M211.7,108.4C211.6,108.3,211.8,108.6,211.7,108.4L211.7,108.4z"/>
	<path style="fill:#fff;" class="st0" d="M214.3,115.4C214.6,114.4,214.6,116.3,214.3,115.4L214.3,115.4z"/>
	<path style="fill:#fff;" class="st0" d="M479,120.4c0-0.3,0.4-0.2,0.7-0.2C479.7,120.4,479.3,120.4,479,120.4z"/>
	<path style="fill:#fff;" class="st0" d="M203.8,124.2c0.1-0.3,0.5-0.2,0.5,0C204.1,124.6,204,124.2,203.8,124.2z"/>
	<path style="fill:#fff;" class="st0" d="M205,126.4c0.4-0.3,0.3-1,1-1C206,126.2,205.7,126.5,205,126.4z"/>
	<path style="fill:#fff;" class="st0" d="M205,126.4c-0.1,0.5-0.6,0.5-0.7,1c-1.1-0.6-1.5,0.3-2.2,0.7c-0.5-0.1-0.9-0.4-1-1c1.1,0,1.4,0.1,2.6-0.5
		c0-0.4-0.6-0.2-0.5-0.7c0.6,0.1,0.5-0.4,1.2-0.2C204.5,126.1,204.7,126.3,205,126.4z"/>
	<path style="fill:#fff;" class="st0" d="M14.2,126.9c1,1.6,0.6,5.2-1.4,5.3c0,0.9,0.8,1.1,0.7,2.2c-0.4,0.1-0.4-0.2-0.7-0.2c-0.3,0-0.2,0.4-0.2,0.7
		c-0.6-1-0.9-2.3-1.2-3.6C12.3,130.5,13.1,128.3,14.2,126.9z"/>
	<path style="fill:#fff;" class="st0" d="M400.6,128.1c0-0.2,0.3-0.2,0.5-0.2C401,128.1,400.7,128,400.6,128.1z"/>
	<path style="fill:#fff;" class="st0" d="M412.8,128.1c-0.1,0.3-1.2,0.8-1.4,0.2C412.1,128.5,412.1,127.9,412.8,128.1z"/>
	<path style="fill:#fff;" class="st0" d="M217.2,128.6c0-0.2,0.3-0.2,0.5-0.2C217.7,128.6,217.4,128.5,217.2,128.6z"/>
	<path style="fill:#fff;" class="st0" d="M205,130.2C205.2,129.5,206.2,130.5,205,130.2L205,130.2z"/>
	<path style="fill:#fff;" class="st0" d="M205,130.2c-0.3,0.4-0.8,0.6-1.4,0.7C203.7,130.4,204.1,130.1,205,130.2z"/>
	<path style="fill:#fff;" class="st0" d="M237.6,130.5c-0.3,0.5-1.5,0.1-2.2,0.2C235.3,129.8,237.3,130.3,237.6,130.5z"/>
	<path style="fill:#fff;" class="st0" d="M257.3,130.7C257.2,130.6,257.4,130.9,257.3,130.7L257.3,130.7z"/>
	<path style="fill:#fff;" class="st0" d="M10.3,130.7c0.2,0,0.3,0,0.5,0c0,0.2,0,0.3,0,0.5c-0.2,0-0.3,0-0.5,0C10.3,131,10.3,130.9,10.3,130.7z"/>
	<path style="fill:#fff;" class="st0" d="M483.4,131.2C483.1,130.2,484.1,131.2,483.4,131.2L483.4,131.2z"/>
	<path style="fill:#fff;" class="st0" d="M483.4,131.2C483.4,131.5,483,131.3,483.4,131.2L483.4,131.2z"/>
	<path style="fill:#fff;" class="st0" d="M14.9,132.2c0.4-0.1,0.5,0.2,0.5,0.5c-0.2,0-0.2,0.1-0.2,0.2C14.8,132.8,14.9,132.4,14.9,132.2z"/>
	<path style="fill:#fff;" class="st0" d="M10.1,133.6c0,0.5-0.9,0.1-1.2,0.2C8.9,133.2,9.8,133.3,10.1,133.6z"/>
	<path style="fill:#fff;" class="st0" d="M397.2,135.5C397.2,135.8,396.9,135.7,397.2,135.5L397.2,135.5z"/>
	<path style="fill:#fff;" class="st0" d="M396,136c0-0.3,0.4-0.2,0.7-0.2C396.7,136,396.3,136,396,136z"/>
	<path style="fill:#fff;" class="st0" d="M398.2,136C398.5,135.2,398.8,136.9,398.2,136L398.2,136z"/>
	<path style="fill:#fff;" class="st0" d="M367.4,136.7C367.5,137,367.1,136.9,367.4,136.7L367.4,136.7z"/>
	<path style="fill:#fff;" class="st0" d="M425,138.2c0-0.3,0.4-0.2,0.7-0.2C425.7,138.2,425.3,138.1,425,138.2z"/>
	<path style="fill:#fff;" class="st0" d="M192.2,138.4C192.2,138.1,192.6,138.3,192.2,138.4L192.2,138.4z"/>
	<path style="fill:#fff;" class="st0" d="M12.5,138.6C12.5,139.7,11.5,138.7,12.5,138.6L12.5,138.6z"/>
	<path style="fill:#fff;" class="st0" d="M365,139.1c0.6,0.5-0.2,1.7-1,1.7C364.3,140.2,364.7,139.6,365,139.1z"/>
	<path style="fill:#fff;" class="st0" d="M426,139.4c0.2,0,0.3,0,0.5,0c0,0.2,0,0.3,0,0.5c-0.2,0-0.3,0-0.5,0C426,139.7,426,139.5,426,139.4z"/>
	<path style="fill:#fff;" class="st0" d="M267.4,143.9c-0.1,0.3-0.3,0.5-0.7,0.5C266.7,144.1,266.9,143.9,267.4,143.9z"/>
	<path style="fill:#fff;" class="st0" d="M265.2,144.9c0.1,0,0.3,0,0.2,0.2C265.3,145.1,265.2,145.1,265.2,144.9z"/>
	<path style="fill:#fff;" class="st0" d="M8.6,145.8c0-0.2,0.3-0.2,0.5-0.2C9.1,145.8,8.8,145.8,8.6,145.8z"/>
	<path style="fill:#fff;" class="st0" d="M427.7,146.8c0.2,0,0.3,0,0.5,0c0,0.2,0,0.3,0,0.5c-0.2,0-0.3,0-0.5,0C427.7,147.1,427.7,147,427.7,146.8z"/>
	<path style="fill:#fff;" class="st0" d="M210.2,147.5c-0.9,0.4-2.1,0.5-3.4,0.5C207.5,147.4,209.3,147,210.2,147.5z"/>
	<path style="fill:#fff;" class="st0" d="M201.1,148.7c0.3-0.2,1.4-0.8,1.7-0.2C202.2,148.6,201.9,148.9,201.1,148.7z"/>
	<path style="fill:#fff;" class="st0" d="M199.9,149c0-0.5,0.9-0.1,1.2-0.2C201.2,149.2,200.3,148.8,199.9,149z"/>
	<path style="fill:#fff;" class="st0" d="M162.7,165C163.1,164.2,163.3,166,162.7,165L162.7,165z"/>
	<path style="fill:#fff;" class="st0" d="M165.1,165.8c0.1,0.2,0,0.5,0.2,0.5c-0.5,0.7-1.2-0.4-1.2-1C164.6,165.3,164.5,165.9,165.1,165.8z"/>
	<path style="fill:#fff;" class="st0" d="M194.2,167.2C192.6,167.3,194.3,165.5,194.2,167.2L194.2,167.2z"/>
	<path style="fill:#fff;" class="st0" d="M261.6,176.3c-0.5,0.5,0,1.2,0.7,1.2c0.6-0.3,0.7-1.8-0.5-1.4c0.3-1.6,2.1-1.8,3.4-2.4c-1,0.9,0,1.3,0.7,1.2
		c-0.6,0.6-1.4,1-2.6,1c0,1.9,1.8,0.3,2.6,0.2c0.2,1.4,0.9,4-1,5c0,1,0,1.9,0,2.9c-0.3,0.5-1,0.6-1.2,1.2c1.7,3.6,0.5,10.6-2.6,12.2
		c-0.9,0-0.9-1-1.7-1.2c-5.5,0.9-10.4,2.3-15.1,3.8c-0.5,0.1-0.5-0.3-0.7-0.5c-5.5,0.1-11.4,4.1-16.1,1.9c-2.7,0.5-5.5,0.9-7.9,1.7
		c-0.8,0.1-0.5-0.9-1.2-1c-1.3,0.2-3.5,1.9-4.8,0.5c0.9-0.1,2.5,0.5,2.4-0.7c-2.7-0.2-5.5-0.3-7,0c-0.9-0.4-1.1-1.5-2.4-1.4
		c0.5-0.5,1.9,0,2.2-0.7c-2.1-0.8-4.1,0.7-6.2,0.7c-1,0.1,0.2-0.6-0.5-1c-3.9-0.1-8.9,0.4-12.2-0.5c-0.7,0.1-1.1,0.5-1.4,1
		c-0.9-0.5-1.9-0.9-3.4-0.7c0-0.3,0.4-0.2,0.5-0.5c-1.4-1.4-2.5,1.3-4.6,0.2c0.8-2.3,4.5-0.7,6.2-2.4c-2.1-0.3-4.9,0.7-7-0.2
		c2.9-0.7,6.6-1.7,8.9,0.2c0.9-0.2,0-0.6,0.2-1.4c2.7-0.3,6.6-0.2,8.6-1.7c4.3,0.2,8.5-1.5,12.5-2.9c-0.8-2-3.8,0.9-4.3-1
		c-1.3,1.8-5.2,0.9-6.7,2.4c0.9,0.4,2.9-0.1,4.1-0.2c-1,1.1-3,0.5-4.3,1c0-0.2,0-0.5,0-0.7c-1.8,0.7-3.4,0.6-6,0.2
		c2.7-1.2,7.2-0.6,9.6-2.2c-2.1-0.4-4.7,1.3-6.2-0.7c0-0.3,0-0.6,0-1c2.3-0.7,4.6-1.4,7.4-1.7c-2.6-1.1,1.8-0.8,2.9-1.7
		c-3.5-0.5-8.1,1.9-12.5,2.2c0.1-1,1.8-0.4,2.4-1c-1.1-0.8-2.5,0.7-3.6,0c0.4-1.3,3.8-0.5,3.1-2.2c0.6-0.2,1.3-0.3,2.2-0.2
		c-0.1,0.3-0.4,0.4-0.5,0.7c1.7,0.4,1.4-1.3,2.9-1.2c-0.6,1,1.5,0.1,2.2,0.2c0.2-0.7-0.5-0.4-1-0.5c4.2-2,9.1-3.2,13.9-3.8
		c0.7-0.2,1-0.8,1.4-1.2c9.8-2.3,18.5-5.8,28.6-7.9c2.6,1.6,6.4-2.4,9.6-0.2c0,0.4,0,0.8,0,1.2c1.2,0.9,2.1,0.8,4.1,0.7
		c-0.2,1.1-1.9,0.6-2.6,1.2c-0.2,0.5,1.6,0.1,0.7,0.5c-0.6,0.5-1.7,0.8-2.6,1.4c0.8,0.7,1.3,2.1,0.5,3.1c2.4-1.1,3.1,0.4,5.3-0.7
		c0-0.4,0-0.8-0.5-0.7c0.1-0.3,0.5-0.3,0.7-0.5C261.3,176.3,261.4,176.3,261.6,176.3z M253,174.6c1.6-0.1,2.9-0.4,3.8-1.2
		C255.7,173.1,253.6,173.7,253,174.6z M247,176.1c-1.4,0.5-3.2,0.9-3.4,1.9c2.6-1.4,6.6-1.4,8.6-3.4
		C250.1,175,248.7,175.5,247,176.1z M227.8,176.6c0.8,0.3,2.4-0.2,2.6-1.2C229.1,175.3,228.3,175.8,227.8,176.6z M265.7,178.2
		c0.1-0.6-0.1-1-0.7-1C264.9,177.9,265,178.3,265.7,178.2z M218.6,179.4c0.6-0.2,1.7,0.1,1.7-0.7
		C219.6,178.8,218.7,178.7,218.6,179.4z M227.8,179.4c-0.9-0.1-1.4,0.2-1.7,0.7C227,180.3,227.6,180.1,227.8,179.4
		C228.1,179.3,227.7,179.2,227.8,179.4z M211.7,181.1c0.6,0,1.2,0,1.2-0.7C212.3,180.5,211.8,180.6,211.7,181.1z M211.9,182.1
		c0.7,0,1.2-0.2,1.4-0.7C212.5,181.2,212.1,181.6,211.9,182.1z M216,183.5c1.5-0.2,3.1-0.3,3.8-1.2
		C218.7,181.9,216.3,182.3,216,183.5z M207.1,184.7c0.8,1.7,5.2,0.6,5.5-1.2C211,184.1,208.8,184.2,207.1,184.7z M246.7,183.5
		c-0.2,0.1-0.5,0-0.5,0.2C246.4,183.7,246.7,183.8,246.7,183.5z M244.6,184.5c0.7,0,1.2-0.2,1.4-0.7
		C245.3,183.7,244.8,184,244.6,184.5z M242.4,185.4C242.6,185.6,242.3,185.3,242.4,185.4L242.4,185.4z M199.4,185.7
		c-0.2,0.1-0.5,0-0.5,0.2C199.1,185.9,199.4,185.9,199.4,185.7z M239.5,186.4c-1.1,0-2,0.1-2.2,1
		C237.9,186.9,239.3,187.2,239.5,186.4c0.9,0,1.6-0.1,1.9-0.7C240.6,185.7,240.1,186.1,239.5,186.4z M263,186.6
		c0.6,0.2,0.5-0.5,0.7-0.7C263.2,185.9,263,186.1,263,186.6z M205,186.2c-0.2,0.1-0.5,0-0.5,0.2C204.7,186.3,205,186.4,205,186.2z
		 M200.9,188.3c0.7-0.1,1.9,0.3,1.9-0.5C202,187.8,201.3,187.9,200.9,188.3z M197.3,189.3c1-0.2,1.7-0.7,3.1-0.5
		C200,187.8,197.4,188.5,197.3,189.3z M224.9,198.4c2.8,0.2,4.8-1.2,7.4-1.7c1.7-0.3,3.9,0,4.8-1.4
		C233.1,196.4,228.5,196.9,224.9,198.4z M208.6,198.2C208.2,198.3,208.6,198.5,208.6,198.2C209.6,198.4,208.6,197.4,208.6,198.2z
		 M187,198.6c-0.3,0-0.7,0-0.7,0.2C186.5,198.8,186.9,198.9,187,198.6z M221,199.6c0.4,0,0.6-0.2,0.7-0.5
		C221.4,199.1,220.9,199.1,221,199.6z M216.5,200.6c0.3,0,0.6,0,1,0C217.6,199.6,216.3,199.6,216.5,200.6z M214.8,200.8
		c0.5,0.1,0.9-0.1,1-0.5C215.2,200.3,214.9,200.4,214.8,200.8z"/>
	<path style="fill:#fff;" class="st0" d="M262.8,172.7c-0.8-0.4-1.7,0.8-1.7-0.2C261.5,172.5,262.9,171.7,262.8,172.7z"/>
	<path style="fill:#fff;" class="st0" d="M259.4,174.2c-0.1,0-0.2,0-0.2,0c-0.2,0-0.3,0-0.5,0c0-0.4,0.1-0.7,0.2-1C259.4,173.3,259.5,173.6,259.4,174.2
		z"/>
	<path style="fill:#fff;" class="st0" d="M259.4,174.2C261.1,174,259.3,175.7,259.4,174.2L259.4,174.2z"/>
	<path style="fill:#fff;" class="st0" d="M54.7,174.6c0.2,0,0.3,0,0.5,0c0,0.2,0,0.3,0,0.5c-0.2,0-0.3,0-0.5,0C54.7,175,54.7,174.8,54.7,174.6z"/>
	<path style="fill:#fff;" class="st0" d="M257.8,174.6c-0.1,0.2-0.2,0.4-0.2,0.7c-0.5,0-1,0-1.4,0C256.5,175,257.1,174.8,257.8,174.6z"/>
	<path style="fill:#fff;" class="st0" d="M266.2,174.9c0.6-0.1,1,0.1,1,0.7C266.7,175.5,266.1,175.5,266.2,174.9z"/>
	<path style="fill:#fff;" class="st0" d="M26.2,175.1c0.5,0.1,0.4,0.7,1.2,0.5c-0.2,0.5-0.6,0.8-1.4,0.7C26.1,176,26.2,175.7,26.2,175.1z"/>
	<path style="fill:#fff;" class="st0" d="M259.2,175.4c0.9-0.4,0.1,0.8,0.7,0.7c-0.8,0.8-0.9,0.9-2.4,0.7C257.7,175.9,259.1,176.3,259.2,175.4z"/>
	<path style="fill:#fff;" class="st0" d="M261.6,176.3c0-0.1,0-0.3,0.2-0.2C261.9,176.3,261.7,176.3,261.6,176.3z"/>
	<path style="fill:#fff;" class="st0" d="M53.8,179.4c0.5,0,0.8,0.2,0.7,0.7c-0.2,0-0.5,0-0.7,0C53.8,179.9,53.8,179.7,53.8,179.4z"/>
	<path style="fill:#fff;" class="st0" d="M201.1,183.5c0-0.3,0.4-0.2,0.7-0.2C201.8,183.6,201.4,183.5,201.1,183.5z"/>
	<path style="fill:#fff;" class="st0" d="M198.5,184C198.5,183.7,198.8,183.9,198.5,184L198.5,184z"/>
	<path style="fill:#fff;" class="st0" d="M192.5,186.6C193.1,185.7,192.8,187.4,192.5,186.6L192.5,186.6z"/>
	<path style="fill:#fff;" class="st0" d="M188.6,192.2c1.4-1.1,4.3-0.8,6-1.7c0.1-0.6-1.1,0.1-0.7-0.7c1.1,0.4,1.4-0.8,1.9-0.2c-0.2,0.7-0.9,0.9-1,1.7
		C192.6,191.3,190.9,192.1,188.6,192.2z"/>
	<path style="fill:#fff;" class="st0" d="M189.1,189.8c-0.4,0.2-0.8,0.9,0.2,0.7c-0.5,1.2-2.8,0.1-4.1,1C186.4,190.7,187.4,189.9,189.1,189.8z"/>
	<path style="fill:#fff;" class="st0" d="M188.6,192.2C188.7,192.5,188.3,192.3,188.6,192.2L188.6,192.2z"/>
	<path style="fill:#fff;" class="st0" d="M192.5,192.2c0.1,0.9-0.7,0.7-1.4,0.7C191.2,192.3,191.9,192.3,192.5,192.2z"/>
	<path style="fill:#fff;" class="st0" d="M187.2,193.6c0-0.2,0.3-0.2,0.5-0.2C187.7,193.6,187.4,193.5,187.2,193.6z"/>
	<path style="fill:#fff;" class="st0" d="M194.6,193.6c0,0.5-0.9,0.1-1.2,0.2C193.6,193.1,194.1,193.5,194.6,193.6z"/>
	<path style="fill:#fff;" class="st0" d="M183.4,194.1c0-0.6,0.9-0.6,1.2-0.2C186.8,193.7,183.7,194.7,183.4,194.1z"/>
	<path style="fill:#fff;" class="st0" d="M192.5,193.6c-0.4,0.4-0.9,0.7-1.7,0.7C190.8,193.6,191.7,193.7,192.5,193.6z"/>
	<path style="fill:#fff;" class="st0" d="M188.4,195C189.5,194.2,189.3,195.7,188.4,195L188.4,195z"/>
	<path style="fill:#fff;" class="st0" d="M178.3,196.7c0,0.7-0.6,0.7-1.2,0.7C177.3,197,177.8,196.8,178.3,196.7z"/>
	<path style="fill:#fff;" class="st0" d="M180,198.6c-3.1,0.2-5.8,1.3-8.2,1C174.5,198.9,177.7,197.6,180,198.6z"/>
	<path style="fill:#fff;" class="st0" d="M185,199.4C185,200.1,184,199.1,185,199.4L185,199.4z"/>
	<path style="fill:#fff;" class="st0" d="M170.9,199.8C170.8,199.7,171,200,170.9,199.8L170.9,199.8z"/>
	<path style="fill:#fff;" class="st0" d="M179.5,200.1c-0.8,0.1-3,1-3.4,0C177.4,199.7,178.5,200,179.5,200.1z"/>
	<path style="fill:#fff;" class="st0" d="M173.3,200.3c-0.2,1.5-1.8,0.6-3.1,0.7C170.7,200.4,172.8,200.2,173.3,200.3z"/>
	<path style="fill:#fff;" class="st0" d="M196.3,200.3c0.4,0,0.8,0,1.2,0c0,0.3,0,0.7,0.2,0.7c-0.2,0.4-0.6,0.5-1.2,0.5
		C196.3,201,196.6,201.1,196.3,200.3z"/>
	<path style="fill:#fff;" class="st0" d="M242.2,200.8C242.1,200.5,242.5,200.7,242.2,200.8L242.2,200.8z"/>
	<path style="fill:#fff;" class="st0" d="M192.5,201c0.1-0.3,2.2-0.6,1.9,0.2C193.6,201.3,193.4,200.9,192.5,201z"/>
	<path style="fill:#fff;" class="st0" d="M242.2,200.8C242.2,201.1,241.8,200.9,242.2,200.8L242.2,200.8z"/>
	<path style="fill:#fff;" class="st0" d="M241.2,201c-0.2,0.4-0.4,0.8-1.2,0.7C240.2,201.3,240.6,201.1,241.2,201z"/>
</g>
</svg>
